<svg width="25" height="21" viewBox="0 0 25 21" fill="none" xmlns="http://www.w3.org/2000/svg">
<path id="Vector" d="M0.00012207 6.3798V16.8C0.00012207 17.9139 0.439109 18.9822 1.22051 19.7698C2.00191 20.5575 3.06172 21 4.16679 21H20.8335C21.9385 21 22.9983 20.5575 23.7797 19.7698C24.5611 18.9822 25.0001 17.9139 25.0001 16.8V4.2C25.0001 3.08609 24.5611 2.0178 23.7797 1.23015C22.9983 0.442499 21.9385 0 20.8335 0H4.16679C3.06172 0 2.00191 0.442499 1.22051 1.23015C0.439109 2.0178 0.00012207 3.08609 0.00012207 4.2V6.3798ZM4.16679 2.1H20.8335C21.386 2.1 21.9159 2.32125 22.3066 2.71508C22.6973 3.1089 22.9168 3.64305 22.9168 4.2V5.754L12.5001 11.4072L2.08346 5.754V4.2C2.08346 3.64305 2.30295 3.1089 2.69365 2.71508C3.08435 2.32125 3.61425 2.1 4.16679 2.1ZM2.08346 8.1396L12.0064 13.524C12.1581 13.6063 12.3278 13.6494 12.5001 13.6494C12.6725 13.6494 12.8421 13.6063 12.9939 13.524L22.9168 8.1396V16.8C22.9168 17.357 22.6973 17.8911 22.3066 18.2849C21.9159 18.6787 21.386 18.9 20.8335 18.9H4.16679C3.61425 18.9 3.08435 18.6787 2.69365 18.2849C2.30295 17.8911 2.08346 17.357 2.08346 16.8V8.1396Z" fill="white"/>
</svg>
