<svg width="27" height="27" viewBox="0 0 27 27" fill="none" xmlns="http://www.w3.org/2000/svg">
<path id="Vector" d="M14.3445 12.1647H14.4185L14.453 12.0993C14.9165 11.2218 16.0456 10.2858 17.7563 10.2858C19.5601 10.2858 20.5982 10.8706 21.1951 11.8146C21.8003 12.7716 21.9683 14.121 21.9683 15.6858V21.9682H18.6093V16.4148C18.6093 15.7441 18.6047 14.952 18.3563 14.3281C18.2307 14.0125 18.0406 13.7338 17.7528 13.5349C17.4648 13.3358 17.0896 13.2239 16.6063 13.2239C16.1194 13.2239 15.7259 13.319 15.4108 13.4928C15.095 13.6669 14.865 13.9161 14.6998 14.2125C14.3725 14.7997 14.2978 15.575 14.2978 16.3375V21.9682H10.9376V10.5545H14.1444V12.042V12.1647H14.2672H14.3445ZM0.991945 0.991823C1.54319 0.44058 2.2892 0.128394 3.06875 0.122727H23.9319C25.5418 0.122727 26.8774 1.45828 26.8774 3.06818V23.9318C26.8774 25.5417 25.5418 26.8773 23.9319 26.8773H3.0683C1.4584 26.8773 0.122849 25.5417 0.122849 23.9318V3.06862C0.128516 2.28908 0.440702 1.54307 0.991945 0.991823ZM23.9319 2.33182H3.0683C2.65075 2.33182 2.33194 2.65063 2.33194 3.06818V23.9305C2.32993 24.0277 2.34753 24.1243 2.38371 24.2145C2.42006 24.3052 2.47442 24.3875 2.54351 24.4566C2.61259 24.5257 2.69496 24.5801 2.78564 24.6164C2.87588 24.6526 2.9725 24.6702 3.06969 24.6682H23.9307C24.0278 24.67 24.1244 24.6523 24.2145 24.616C24.3051 24.5796 24.3873 24.5252 24.4564 24.4562C24.5254 24.3872 24.5797 24.305 24.6161 24.2144C24.6524 24.1242 24.6701 24.0277 24.6683 23.9305V3.06818C24.6683 2.65063 24.3495 2.33182 23.9319 2.33182ZM5.89611 4.82413C6.1427 4.72718 6.40618 4.68053 6.67107 4.68692C7.18959 4.69943 7.68267 4.9142 8.04498 5.28535C8.40729 5.65651 8.61011 6.15462 8.61011 6.6733C8.61011 7.19197 8.40729 7.69008 8.04498 8.06124C7.68267 8.43239 7.18959 8.64716 6.67107 8.65967C6.40618 8.66606 6.1427 8.61941 5.89611 8.52246C5.64952 8.4255 5.42481 8.28021 5.23521 8.09513C5.0456 7.91004 4.89493 7.6889 4.79206 7.44473C4.68919 7.20055 4.6362 6.93826 4.6362 6.6733C4.6362 6.40833 4.68919 6.14604 4.79206 5.90187C4.89493 5.65769 5.0456 5.43655 5.23521 5.25147C5.42481 5.06638 5.64952 4.92109 5.89611 4.82413ZM8.43026 21.9682H5.03194V10.5545H8.43026V21.9682Z" fill="white" stroke="#1D1D1F" stroke-width="0.245455"/>
</svg>
