<svg width="26" height="29" viewBox="0 0 26 29" fill="none" xmlns="http://www.w3.org/2000/svg">
<g id="Group 9">
<path id="Vector" d="M15.5861 26.1651H15.6483L15.6922 26.1212L20.6922 21.1212L20.7983 21.0151L20.6922 20.9091L19.1062 19.3231L19.0001 19.217L18.8941 19.3231L13.8941 24.3231L13.8501 24.367V24.4291V26.0151V26.1651H14.0001H15.5861ZM21.8941 19.7072L22.0001 19.8133L22.1062 19.7072L23.6922 18.1212L23.7983 18.0151L23.6922 17.9091L22.1062 16.3231L22.0001 16.217L21.8941 16.3231L20.3081 17.9091L20.202 18.0151L20.3081 18.1212L21.8941 19.7072ZM22.0001 14.1653C22.2255 14.1653 22.4417 14.2549 22.6011 14.4142L25.601 17.4142C25.601 17.4142 25.6011 17.4142 25.6011 17.4142C25.7604 17.5736 25.8499 17.7898 25.8499 18.0151C25.8499 18.2405 25.7604 18.4567 25.6011 18.6161C25.6011 18.6161 25.601 18.6161 25.601 18.6161L16.352 27.8651H12.1501V23.6633L21.3992 14.4142C21.5586 14.2549 21.7747 14.1653 22.0001 14.1653ZM14.1501 15.8651V12.1651H15.8501V15.8651H14.1501ZM10.1501 15.8651V10.1651H11.8501V15.8651H10.1501ZM6.15012 15.8651V6.16514H7.85012V15.8651H6.15012Z" fill="black" stroke="white" stroke-width="0.3"/>
<path id="Vector_2" d="M19.8501 2.01529V11.8651H18.1501V2.01514V1.86514H18.0001H2.00012H1.85012V2.01514V26.0151V26.1651H2.00012H7.85012V27.8651H2.00027C1.50973 27.8646 1.03942 27.6696 0.69256 27.3227C0.345695 26.9758 0.150612 26.5055 0.150122 26.015L0.150122 2.01521C0.150631 1.5247 0.345712 1.05442 0.69256 0.707574C1.03942 0.36071 1.50973 0.165626 2.00027 0.165137L18 0.165137C18.4906 0.165646 18.9608 0.360727 19.3077 0.707574C19.6546 1.05444 19.8496 1.52475 19.8501 2.01529Z" fill="black" stroke="white" stroke-width="0.3"/>
</g>
</svg>
