<svg width="20" height="25" viewBox="0 0 20 25" fill="none" xmlns="http://www.w3.org/2000/svg">
<path id="Vector" d="M3.40012 18.3C3.71838 18.2072 4.06048 18.2446 4.35116 18.404C4.64184 18.5634 4.8573 18.8317 4.95012 19.15C5.04295 19.4683 5.00554 19.8104 4.84614 20.101C4.68673 20.3917 4.41838 20.6072 4.10012 20.7C3.47512 20.8825 3.02512 21.075 2.73637 21.25C3.03387 21.4288 3.50387 21.6287 4.15637 21.815C5.60012 22.2275 7.66637 22.5 10.0001 22.5C12.3339 22.5 14.4001 22.2275 15.8439 21.815C16.4976 21.6287 16.9664 21.4288 17.2639 21.25C16.9764 21.075 16.5264 20.8825 15.9014 20.7C15.5881 20.6031 15.3255 20.387 15.1701 20.0982C15.0147 19.8095 14.979 19.4712 15.0707 19.1564C15.1623 18.8416 15.374 18.5754 15.6601 18.4152C15.9462 18.255 16.2838 18.2136 16.6001 18.3C17.4351 18.5437 18.2001 18.8563 18.7876 19.2575C19.3314 19.6313 20.0001 20.2825 20.0001 21.25C20.0001 22.2288 19.3151 22.885 18.7626 23.2587C18.1651 23.6612 17.3839 23.975 16.5301 24.2188C14.8076 24.7125 12.5001 25 10.0001 25C7.50012 25 5.19262 24.7125 3.47012 24.2188C2.61637 23.975 1.83512 23.6612 1.23762 23.2587C0.685122 22.8837 0.00012207 22.2288 0.00012207 21.25C0.00012207 20.2825 0.668872 19.6313 1.21262 19.2575C1.80012 18.8563 2.56512 18.5437 3.40012 18.3ZM10.0001 0C12.4865 0 14.8711 0.98772 16.6292 2.74587C18.3874 4.50403 19.3751 6.8886 19.3751 9.375C19.3751 12.585 17.6251 15.195 15.8126 17.05C15.0921 17.7799 14.3179 18.4547 13.4964 19.0687C12.7539 19.6262 11.0564 20.6713 11.0564 20.6713C10.7344 20.8542 10.3704 20.9505 10.0001 20.9505C9.6298 20.9505 9.26582 20.8542 8.94387 20.6713C8.10108 20.1833 7.28646 19.6483 6.50387 19.0687C5.68205 18.4551 4.90776 17.7803 4.18762 17.05C2.37512 15.195 0.625122 12.585 0.625122 9.375C0.625122 6.8886 1.61284 4.50403 3.371 2.74587C5.12915 0.98772 7.51372 0 10.0001 0ZM10.0001 2.5C8.17676 2.5 6.42807 3.22433 5.13876 4.51364C3.84945 5.80295 3.12512 7.55164 3.12512 9.375C3.12512 11.645 4.37012 13.66 5.97512 15.3C7.18262 16.535 8.51262 17.475 9.43387 18.0525L10.0001 18.395L10.5664 18.0525C11.4864 17.475 12.8176 16.535 14.0251 15.3013C15.6301 13.66 16.8751 11.645 16.8751 9.375C16.8751 7.55164 16.1508 5.80295 14.8615 4.51364C13.5722 3.22433 11.8235 2.5 10.0001 2.5ZM10.0001 5.625C10.4926 5.625 10.9802 5.722 11.4352 5.91045C11.8902 6.09891 12.3036 6.37513 12.6518 6.72335C13 7.07157 13.2762 7.48497 13.4647 7.93994C13.6531 8.39491 13.7501 8.88254 13.7501 9.375C13.7501 9.86746 13.6531 10.3551 13.4647 10.8101C13.2762 11.265 13 11.6784 12.6518 12.0267C12.3036 12.3749 11.8902 12.6511 11.4352 12.8395C10.9802 13.028 10.4926 13.125 10.0001 13.125C9.00556 13.125 8.05173 12.7299 7.34847 12.0267C6.64521 11.3234 6.25012 10.3696 6.25012 9.375C6.25012 8.38044 6.64521 7.42661 7.34847 6.72335C8.05173 6.02009 9.00556 5.625 10.0001 5.625ZM10.0001 8.125C9.6686 8.125 9.35066 8.2567 9.11624 8.49112C8.88182 8.72554 8.75012 9.04348 8.75012 9.375C8.75012 9.70652 8.88182 10.0245 9.11624 10.2589C9.35066 10.4933 9.6686 10.625 10.0001 10.625C10.3316 10.625 10.6496 10.4933 10.884 10.2589C11.1184 10.0245 11.2501 9.70652 11.2501 9.375C11.2501 9.04348 11.1184 8.72554 10.884 8.49112C10.6496 8.2567 10.3316 8.125 10.0001 8.125Z" fill="white"/>
</svg>
