<svg width="37" height="28" viewBox="0 0 37 28" fill="none" xmlns="http://www.w3.org/2000/svg">
<path id="Vector" d="M32.0169 1.45151C31.6427 1.20943 31.2148 1.06297 30.7707 1.02502C30.3267 0.987068 29.8801 1.05878 29.4703 1.23384L16.0405 6.52302C15.7226 6.65242 15.3826 6.71895 15.0393 6.71892H6.44166C5.72007 6.71892 5.02803 7.00557 4.51779 7.51581C4.00754 8.02606 3.72089 8.7181 3.72089 9.43969V9.65735H1.00012V16.1872H3.72089V16.4702C3.73794 17.1804 4.0321 17.8558 4.54051 18.352C5.04892 18.8482 5.73124 19.1258 6.44166 19.1256L9.70659 26.0473C9.92767 26.5134 10.2757 26.9077 10.7108 27.1849C11.1459 27.4621 11.6503 27.611 12.1662 27.6144H13.5374C14.2553 27.6087 14.9417 27.3195 15.4473 26.8099C15.9528 26.3003 16.2365 25.6115 16.2364 24.8937V19.3868L29.4703 24.676C29.7958 24.8055 30.1429 24.872 30.4933 24.8719C31.0368 24.8631 31.5661 24.6968 32.0169 24.393C32.3749 24.1513 32.6702 23.8278 32.8784 23.4493C33.0866 23.0708 33.2016 22.6482 33.2141 22.2164V3.69342C33.2121 3.25051 33.102 2.81479 32.8933 2.42409C32.6847 2.03339 32.3839 1.69953 32.0169 1.45151ZM13.5157 9.43969V16.4702H6.44166V9.43969H13.5157ZM13.5157 24.8937H12.1444L9.46716 19.1256H13.5157V24.8937ZM17.0418 16.7967C16.7834 16.6646 16.5139 16.5553 16.2364 16.4702V9.28733C16.5112 9.23063 16.7807 9.15053 17.0418 9.0479L30.4933 3.69342V22.1511L17.0418 16.7967ZM33.2794 10.2015V15.643C34.0009 15.643 34.693 15.3564 35.2032 14.8462C35.7135 14.3359 36.0001 13.6439 36.0001 12.9223C36.0001 12.2007 35.7135 11.5086 35.2032 10.9984C34.693 10.4882 34.0009 10.2015 33.2794 10.2015Z" fill="black" stroke="white" stroke-width="0.71"/>
</svg>
