<svg width="23" height="23" viewBox="0 0 23 23" fill="none" xmlns="http://www.w3.org/2000/svg">
<path id="Vector" d="M13.6245 1.57778C13.6552 1.46277 13.7084 1.35494 13.7808 1.26047C13.8533 1.16599 13.9436 1.08672 14.0467 1.02718C14.1498 0.967633 14.2636 0.928987 14.3817 0.913446C14.4997 0.897906 14.6196 0.905776 14.7346 0.936607C16.4147 1.37495 17.9475 2.25321 19.1752 3.48094C20.4029 4.70868 21.2812 6.2415 21.7195 7.92153C21.7504 8.03652 21.7582 8.15647 21.7427 8.2745C21.7272 8.39254 21.6885 8.50636 21.629 8.60945C21.5694 8.71255 21.4902 8.8029 21.3957 8.87535C21.3012 8.9478 21.1934 9.00092 21.0784 9.03169C21.0018 9.05179 20.923 9.06207 20.8439 9.06227C20.6442 9.06227 20.4501 8.99629 20.2917 8.87461C20.1334 8.75293 20.0196 8.58235 19.9682 8.38938C19.6107 7.01791 18.8939 5.76659 17.8917 4.76441C16.8896 3.76222 15.6382 3.04544 14.2668 2.68793C14.1517 2.65729 14.0437 2.60426 13.9491 2.53186C13.8545 2.45947 13.7751 2.36913 13.7155 2.26602C13.6558 2.16291 13.6171 2.04905 13.6014 1.93096C13.5858 1.81286 13.5937 1.69285 13.6245 1.57778ZM13.3605 6.31293C14.9227 6.72981 15.9263 7.73348 16.3432 9.29563C16.3946 9.4886 16.5084 9.65918 16.6667 9.78086C16.8251 9.90254 17.0192 9.96852 17.2189 9.96852C17.298 9.96832 17.3768 9.95804 17.4534 9.93794C17.5684 9.90717 17.6762 9.85405 17.7707 9.7816C17.8652 9.70915 17.9444 9.6188 18.004 9.5157C18.0635 9.41261 18.1022 9.29879 18.1177 9.18075C18.1332 9.06272 18.1254 8.94277 18.0945 8.82778C17.5145 6.65731 15.9988 5.14161 13.8284 4.56161C13.7134 4.53089 13.5935 4.52312 13.4755 4.53874C13.3575 4.55437 13.2437 4.59308 13.1407 4.65267C13.0376 4.71226 12.9473 4.79156 12.875 4.88605C12.8026 4.98053 12.7495 5.08835 12.7188 5.20334C12.6881 5.31834 12.6803 5.43826 12.6959 5.55625C12.7115 5.67425 12.7503 5.78801 12.8099 5.89105C12.8694 5.99408 12.9487 6.08437 13.0432 6.15676C13.1377 6.22915 13.2455 6.28222 13.3605 6.31293ZM22.6428 17.1143C22.4408 18.6493 21.687 20.0583 20.5221 21.0781C19.3572 22.0979 17.8609 22.6588 16.3126 22.656C7.3181 22.656 0.000132321 15.3381 0.000132321 6.34352C-0.00264305 4.7953 0.558254 3.299 1.57806 2.1341C2.59787 0.969196 4.00686 0.215353 5.54185 0.0133645C5.93001 -0.0340313 6.32309 0.04538 6.66241 0.239744C7.00173 0.434108 7.2691 0.733 7.42459 1.0918L9.81709 6.43301V6.44661C9.93613 6.72126 9.98529 7.02112 9.96019 7.31941C9.93509 7.6177 9.83649 7.90513 9.67322 8.15602C9.65283 8.18661 9.6313 8.21493 9.60865 8.24325L7.25013 11.039C8.09861 12.7632 9.90205 14.5507 11.6488 15.4015L14.4061 13.0554C14.4332 13.0327 14.4616 13.0115 14.4911 12.992C14.7418 12.8248 15.0302 12.7227 15.3302 12.695C15.6303 12.6674 15.9325 12.7149 16.2095 12.8334L16.2243 12.8402L21.561 15.2316C21.9204 15.3865 22.22 15.6536 22.415 15.993C22.61 16.3324 22.6899 16.7257 22.6428 17.1143ZM20.8439 16.8877H20.8314L15.5072 14.5032L12.7488 16.8492C12.722 16.8719 12.6941 16.8931 12.665 16.9127C12.4042 17.0867 12.1027 17.19 11.7899 17.2127C11.4772 17.2353 11.164 17.1764 10.8808 17.0418C8.75904 16.0166 6.64408 13.9175 5.61775 11.8184C5.48184 11.5373 5.42086 11.2259 5.44071 10.9143C5.46055 10.6027 5.56056 10.3015 5.73103 10.0399C5.75025 10.0092 5.77184 9.98001 5.7956 9.95266L8.15638 7.15348L5.77748 1.82926C5.77703 1.82474 5.77703 1.82019 5.77748 1.81567C4.67894 1.95897 3.67031 2.49781 2.94047 3.33128C2.21064 4.16474 1.80966 5.23568 1.81263 6.34352C1.81683 10.1879 3.34585 13.8736 6.06422 16.5919C8.78259 19.3103 12.4683 20.8393 16.3126 20.8435C17.4198 20.8473 18.4904 20.4477 19.3244 19.7195C20.1583 18.9912 20.6985 17.9842 20.8439 16.8866V16.8877Z" fill="white"/>
</svg>
