<svg width="24" height="26" viewBox="0 0 24 26" fill="none" xmlns="http://www.w3.org/2000/svg">
<path id="Vector" fill-rule="evenodd" clip-rule="evenodd" d="M21.2098 17.4926C21.3318 17.2364 21.6344 17.1296 21.883 17.2528L22.8722 17.743C22.8722 17.743 20.0524 24.6905 12.157 25.0151C4.63748 24.8203 0.0472148 18.7006 0.000468775 12.4837C-0.0462773 6.26683 4.63748 0.0821532 11.969 0.0172235C19.1751 -0.112636 21.9392 5.86141 21.9392 5.86141C22.0738 6.11204 22.1829 6.08191 22.1829 5.79635V2.54909C22.183 2.41139 22.2359 2.27937 22.3299 2.18204C22.4239 2.08472 22.5513 2.03004 22.6842 2.03004H23.4988C23.7757 2.03004 24.0001 2.26379 24.0001 2.55052V8.91154C24.0003 8.97983 23.9874 9.04749 23.9623 9.11062C23.9372 9.17376 23.9004 9.23115 23.8538 9.2795C23.8073 9.32785 23.752 9.36621 23.6911 9.39238C23.6302 9.41855 23.565 9.43202 23.4991 9.43202H17.1696C17.1038 9.43207 17.0387 9.4187 16.9779 9.39267C16.9171 9.36664 16.8619 9.32845 16.8154 9.2803C16.7688 9.23215 16.7319 9.17497 16.7067 9.11203C16.6815 9.0491 16.6685 8.98163 16.6685 8.91349V8.13252C16.6685 7.84618 16.8927 7.61049 17.1707 7.6062L20.3646 7.55685C20.6419 7.55257 20.7685 7.33882 20.638 7.08572C20.638 7.08572 18.3604 1.64046 12.0315 1.70539C5.8906 1.77032 1.66077 7.15026 1.69222 12.5151C2.0682 19.6909 7.33183 23.1971 12.1568 23.0672C18.987 23.0672 21.2096 17.4926 21.2096 17.4926H21.2098Z" fill="black"/>
</svg>
