<svg width="157" height="19" viewBox="0 0 157 19" fill="none" xmlns="http://www.w3.org/2000/svg">
<g id="O4YINI1 1">
<g id="Group">
<g id="Group_2">
<path id="Vector" d="M14.4408 7.20315C14.4671 7.33902 14.6986 7.19952 14.7356 7.31922C14.7514 7.28694 14.7808 7.2518 14.7831 7.21971C14.79 7.13145 14.8546 7.09582 14.9369 7.1561C15.0274 7.22429 15.2488 7.13569 15.2376 7.30148C15.2565 7.29854 15.2782 7.29289 15.2971 7.28996C15.4326 7.27469 15.5708 7.25138 15.7065 7.25215C15.8205 7.25321 15.9735 7.31785 16.0436 7.28481C16.1272 7.24356 16.1199 7.11544 16.2882 7.1104C16.3045 7.11017 16.3336 7.06168 16.3306 7.035C16.3268 6.96293 16.3369 6.90936 16.4647 6.92092C16.5843 6.9326 16.627 6.88124 16.7075 6.81599C16.9277 6.64193 17.1784 6.71053 17.2822 6.95217C17.2935 6.97873 17.3102 7.00788 17.3241 7.0344C17.34 7.00746 17.3696 6.983 17.3665 6.95633C17.3567 6.84427 17.3973 6.83034 17.5096 6.90356C17.5233 6.91406 17.5909 6.89441 17.6178 6.87533C17.7174 6.81249 17.9619 6.82508 18.0553 6.90391C18.0717 6.91704 18.0802 6.93829 18.0913 6.95683C18.1073 6.93524 18.1395 6.91074 18.1392 6.88937C18.1346 6.7532 18.2315 6.69573 18.4 6.70672C18.582 6.72019 18.6457 6.61244 18.7342 6.53907C18.8201 6.46841 18.8849 6.44345 18.9943 6.50336C19.0217 6.519 19.0977 6.51793 19.1192 6.5016C19.2642 6.39004 19.2491 6.47306 19.2584 6.55308C19.2675 6.62508 19.2784 6.62492 19.3377 6.59737C19.3809 6.57807 19.6709 6.54728 19.7199 6.55727C19.8098 6.57738 19.9211 6.57849 19.9814 6.62039C20.0691 6.6806 20.1097 6.66667 20.1713 6.6097C20.257 6.52836 20.2736 6.54949 20.2994 6.64263C20.3396 6.79968 20.4352 6.84108 20.6161 6.77442C20.7214 6.73554 20.775 6.68403 20.8175 6.80899C20.8373 6.86481 20.8562 6.85653 21.0129 6.80625C21.0751 6.78667 21.1513 6.79896 21.2189 6.78465C21.2595 6.77607 21.2944 6.74352 21.3293 6.72166C21.4192 6.74177 21.5064 6.76191 21.5962 6.78202C21.7242 6.80694 21.9182 6.70537 21.9615 6.88909C21.9644 6.89973 22.0376 6.89603 22.0784 6.90347C22.1683 6.92091 22.2608 6.93564 22.3426 6.96387C22.4081 6.987 22.4603 7.03435 22.5179 7.07094C22.5822 7.01126 22.6472 6.99967 22.7294 7.05728C22.7404 7.06514 22.8187 7.03733 22.8428 7.01294C22.9071 6.9506 22.9607 6.90176 22.9904 6.89066C23.0633 6.86559 23.1306 6.81923 23.2038 6.81286C23.3827 6.79432 23.2913 6.47503 23.6327 6.6225C23.7884 6.68977 24.0255 6.56355 24.2008 6.67329C24.209 6.67852 24.2309 6.68622 24.2362 6.68348C24.4893 6.53032 24.672 6.78688 24.9076 6.74083C24.9211 6.73797 24.9461 6.77769 24.9679 6.78005C25.0957 6.79963 25.1171 6.58561 25.2979 6.70061C25.4267 6.78162 25.5206 6.70817 25.6229 6.64529C25.6794 6.60977 25.7744 6.60576 25.853 6.59664C25.9993 6.57856 26.1574 6.62175 26.2973 6.53163C26.3349 6.50706 26.511 6.47787 26.4993 6.6116C26.4994 6.62229 26.5351 6.64583 26.5568 6.64552C26.7633 6.65865 26.8352 6.75114 26.886 6.88934C26.9226 6.98233 27.0202 6.97294 27.1003 6.87831C27.1136 6.8621 27.1296 6.84317 27.1457 6.82959C27.2155 6.76984 27.2747 6.73428 27.2737 6.85718C27.2739 6.87053 27.605 6.86588 27.6265 6.84955C27.7312 6.76526 27.8337 6.71574 27.9869 6.80174C28.0224 6.81994 28.1302 6.75966 28.1874 6.77221C28.2337 6.78224 28.2455 6.85421 28.2868 6.8937C28.3088 6.91476 28.3498 6.93288 28.3879 6.94036C28.4833 6.96574 28.5217 6.79957 28.6398 6.89675C28.7167 6.95978 28.7706 6.93498 28.8514 6.89111C28.9107 6.86089 29.0169 6.88344 29.0954 6.86631C29.247 6.83479 29.4549 6.94941 29.5526 6.75035C29.5789 6.69388 29.8157 6.73864 30.0341 6.82373C30.045 6.82892 30.0588 6.84475 30.0643 6.84468C30.1831 6.8056 30.323 6.71281 30.4129 6.73559C30.5382 6.76589 30.6258 6.81541 30.7441 6.73628C30.771 6.7172 30.8199 6.72186 30.8578 6.71064C30.9957 6.6713 31.1332 6.60258 31.2662 6.60606C31.345 6.60762 31.4145 6.72419 31.4968 6.78447C31.5297 6.80805 31.5843 6.834 31.625 6.83076C31.7579 6.82355 31.8549 6.9611 32.0083 6.86811C32.0864 6.8216 32.2695 6.90986 32.2727 6.7522C32.2744 6.68004 32.3398 6.69783 32.3675 6.73751C32.4452 6.85396 32.539 6.7725 32.6311 6.75785C32.688 6.74903 32.8013 6.88903 32.7907 6.7182C32.8206 6.72045 32.8694 6.71443 32.8805 6.72763C32.9687 6.82523 33.0363 6.80291 33.1329 6.72408C33.1759 6.69142 33.314 6.67078 33.3551 6.69424C33.4892 6.7725 33.4802 6.71386 33.4765 6.64178C33.4694 6.52167 33.5162 6.56909 33.6062 6.60256C33.6581 6.6232 33.7862 6.6588 33.8306 6.53262C33.8593 6.45207 34.1036 6.45131 34.1564 6.53338C34.2035 6.60752 34.2006 6.59153 34.2816 6.55834C34.3382 6.5335 34.442 6.57478 34.5151 6.5604C34.5882 6.54602 34.68 6.51267 34.7174 6.46673C34.8215 6.34238 35.0322 6.46498 35.1366 6.35398C35.1392 6.35127 35.1992 6.36913 35.2239 6.38481C35.2979 6.43453 35.3665 6.48699 35.4405 6.53671C35.4624 6.55243 35.5169 6.56769 35.5276 6.55953C35.6837 6.46116 35.7171 6.51946 35.7214 6.63427C35.7217 6.65564 35.7546 6.67922 35.7712 6.70036C35.8115 6.67041 35.8682 6.64557 35.8867 6.60791C35.9289 6.52183 35.9288 6.51382 35.9864 6.55575C36.1317 6.66057 36.323 6.74871 36.5013 6.68743C36.6661 6.62901 36.7423 6.64664 36.8494 6.72795C36.874 6.74631 36.9799 6.74482 36.9879 6.73402C37.025 6.67206 37.0344 6.56507 37.1659 6.65138C37.2755 6.72463 37.2901 6.60689 37.3718 6.6191C37.486 6.63352 37.3957 6.77637 37.5528 6.75012C37.8263 6.70354 38.0182 6.83441 38.2641 6.94583C38.2913 6.95079 38.2776 6.9403 38.2638 6.92713C38.2504 6.93801 38.2396 6.94617 38.2262 6.95705C38.2426 6.9675 38.2591 6.97796 38.2782 6.9857C38.2809 6.98566 38.2943 6.97212 38.2641 6.9485C38.2473 6.90866 38.2711 6.86826 38.2901 6.87066C38.4831 6.88665 38.6106 6.87952 38.7241 6.84052C38.7349 6.83503 38.7509 6.81877 38.7536 6.81873C38.8274 6.84976 38.896 6.90222 38.9693 6.90386C39.029 6.90569 39.0906 6.84071 39.1498 6.80782C39.1582 6.82641 39.1559 6.85315 39.1723 6.86361C39.2079 6.88448 39.2709 6.92099 39.2925 6.91268C39.3977 6.86845 39.5056 6.81885 39.5889 6.75624C39.6345 6.72087 39.6309 6.65414 39.6519 6.60308C39.7118 6.6156 39.8019 6.65707 39.8234 6.64074C39.9982 6.52074 39.9933 6.75056 40.1149 6.71412C40.1155 6.75685 40.1107 6.79966 40.1194 6.83961C40.1224 6.85827 40.1663 6.88971 40.1771 6.88689C40.4312 6.81119 40.6807 6.79432 40.9318 6.88697C40.9427 6.89216 40.9645 6.89452 40.9725 6.88907C41.1909 6.77914 41.3611 6.91299 41.5569 6.93695C41.7227 6.95599 41.924 6.98522 42.08 6.87885C42.0853 6.87343 42.1511 6.91792 42.1626 6.96584C42.1548 6.98465 42.1709 6.97374 42.1871 6.9655C42.1734 6.955 42.1624 6.94714 42.1487 6.93665C42.1353 6.9502 42.1219 6.96107 42.1112 6.97458C42.1085 6.97729 42.1277 6.9877 42.1626 6.96584C42.3485 6.86439 42.5165 6.83798 42.6964 6.89155C42.7237 6.89919 42.7562 6.89606 42.7861 6.89831C42.7826 6.84226 42.7954 6.78598 42.8933 6.8033C42.926 6.80819 42.9349 6.86683 42.9652 6.89312C42.9762 6.90365 43.0249 6.89495 43.052 6.88656C43.16 6.85031 43.29 6.82711 43.3706 6.76721C43.4969 6.67461 43.6456 6.82746 43.7555 6.72707C43.7555 6.72707 43.8183 6.75023 43.8157 6.75828C43.7845 6.86023 43.9172 6.83166 43.9665 6.86569C44.1063 6.9599 44.2734 6.87206 44.4151 6.91014C44.5568 6.94822 44.6853 7.01855 44.8194 6.90179C44.9346 6.98299 45.024 6.7787 45.1476 6.88115C45.1558 6.88638 45.2938 6.85238 45.2493 6.77286C45.2381 6.75432 45.2432 6.72754 45.2429 6.70617C45.385 6.77363 45.504 6.55023 45.6525 6.68438C45.658 6.68965 45.6798 6.69469 45.6825 6.69198C45.7388 6.64577 45.7122 6.4912 45.8903 6.60357C45.956 6.64539 46.0575 6.52375 46.1051 6.62994C46.1483 6.6133 46.1997 6.60189 46.2319 6.5774C46.291 6.53115 46.5617 6.47659 46.6355 6.51028C46.6956 6.53615 46.6403 6.65715 46.7782 6.61781C46.8241 6.6038 46.8391 6.50742 46.8743 6.50426C46.9448 6.50059 47.0213 6.53425 47.0949 6.55459C47.1169 6.57565 47.1501 6.61792 47.1636 6.61239C47.2501 6.5898 47.3476 6.56973 47.4176 6.52868C47.4687 6.49857 47.4373 6.38415 47.5628 6.4278C47.6064 6.44321 47.5969 6.53685 47.6167 6.59534C47.6252 6.62193 47.6473 6.64567 47.6639 6.67215C47.6771 6.64525 47.6793 6.60782 47.7062 6.59141C47.7547 6.56134 47.8196 6.54707 47.8681 6.51701C47.9354 6.47599 47.9573 6.48904 47.9608 6.54509C47.9615 6.59851 47.9677 6.65185 47.963 6.70267C47.9584 6.76685 47.9779 6.8013 48.0783 6.79722C48.1461 6.7936 48.2492 6.78414 48.2794 6.81042C48.3948 6.91299 48.4736 6.91722 48.597 6.80863C48.656 6.75705 48.7783 6.76868 48.8552 6.83439C49.0504 7.00796 49.3117 7.05772 49.6044 7.02422C49.7942 7.00285 50.0042 7.0747 50.1709 6.95481C50.326 6.98202 50.4864 7.00114 50.6363 7.04444C50.7617 7.08008 50.8647 7.06795 50.9892 7.04216C51.1625 7.00767 51.3498 7.01038 51.5288 6.99985C51.5478 6.99958 51.578 7.02053 51.5864 7.03644C51.6059 7.07356 51.5828 7.17273 51.682 7.08051C51.7784 6.98832 51.8979 6.99199 52.0255 6.99287C52.3296 6.99393 52.6281 6.9844 52.9115 6.87089C52.9952 6.83765 53.1924 6.7681 53.2302 6.94388L53.3088 6.93476C53.291 6.83082 53.4212 6.82098 53.4704 6.84967C53.6757 6.96967 53.8833 6.86791 54.0842 6.86509C54.2878 6.8649 54.4965 6.84594 54.674 6.91825C54.8105 6.97243 54.7662 6.90626 54.7764 6.86605C54.7866 6.81248 54.7526 6.71411 54.8897 6.8137C54.9857 6.88181 55.0875 6.97655 55.1309 6.7836C55.1308 6.77825 55.1796 6.77223 55.1878 6.77745C55.262 6.83785 55.3131 6.80775 55.4023 6.77978C55.551 6.73228 55.711 6.72202 55.8698 6.81596C56.0614 6.92813 56.2936 7.0344 56.516 6.82557C56.5187 6.82287 56.5705 6.83817 56.5843 6.854C56.7192 6.99369 56.8934 7.0233 57.1042 6.95355C57.2015 6.9228 57.2959 6.88407 57.3988 6.86393C57.4611 6.85236 57.5506 6.84843 57.5971 6.87182C57.8213 6.98889 57.9822 6.84504 58.1525 6.79189C58.2498 6.76114 58.3108 6.66144 58.429 6.76396C58.4345 6.76923 58.5151 6.70932 58.5532 6.71413C58.6538 6.72608 58.6923 6.56792 58.8049 6.66518C58.9094 6.75454 58.953 6.57761 59.0489 6.64038C59.0763 6.65869 59.155 6.65492 59.1552 6.66827C59.1817 6.81483 59.2571 6.7737 59.373 6.7133C59.4188 6.69128 59.517 6.72463 59.5904 6.73161C59.4456 6.8592 59.5592 6.83089 59.6674 6.79999C59.7296 6.78308 59.7917 6.76084 59.8429 6.73074C59.9722 6.65679 59.9219 6.74833 59.9413 6.78278C59.9497 6.79869 59.9962 6.81941 59.9988 6.8167C60.1118 6.74298 60.2379 6.8267 60.3487 6.79576C60.4596 6.76481 60.5649 6.72326 60.673 6.68701C60.7698 6.81388 60.8574 6.67374 60.9469 6.66981C61.164 6.66141 61.3548 6.7175 61.5481 6.75486C61.6297 6.76974 61.6847 6.81972 61.7598 6.75455C61.7678 6.74643 61.814 6.74578 61.8168 6.75108C61.9331 6.92042 62.0971 6.80591 62.2407 6.7852C62.3355 6.77051 62.4162 6.71327 62.5176 6.7813C62.5477 6.80225 62.629 6.78775 62.6859 6.78161C63.0951 6.73312 63.4905 6.85579 63.9 6.82866C64.0275 6.82153 64.158 6.83305 64.238 6.73308C64.286 6.67364 64.3168 6.73465 64.3603 6.74205C64.4229 6.75453 64.5017 6.75609 64.5611 6.73923C64.6287 6.71958 64.7281 6.64338 64.7363 6.64861C64.8378 6.71931 64.9779 6.64789 65.0599 6.68681C65.3005 6.80898 65.5597 6.7065 65.8044 6.73244C65.8261 6.73481 65.8609 6.69959 65.8796 6.67796C65.893 6.66174 65.8954 6.64034 65.9033 6.62153C65.9252 6.63725 65.9498 6.65026 65.9663 6.66605C66.0076 6.70555 66.0408 6.75049 66.0901 6.78186C66.1093 6.79494 66.1987 6.78033 66.1986 6.77499C66.2158 6.64385 66.3174 6.72524 66.396 6.71612C66.5477 6.69795 66.7748 6.82032 66.8451 6.60829C67.0485 6.59208 67.2568 6.54106 67.4535 6.62913C67.5108 6.65503 67.5709 6.67823 67.6255 6.70418C67.7486 6.76389 67.8415 6.61566 67.9945 6.68564C68.0819 6.72715 68.2527 6.70605 68.3959 6.6613C68.5094 6.62497 68.6943 6.64642 68.8117 6.69285C69.0438 6.78576 69.2818 6.72098 69.5128 6.74177C69.6623 6.7557 69.8269 6.68393 69.9586 6.78626C69.9724 6.79676 70.0186 6.80412 70.0375 6.79584C70.326 6.65822 70.6534 6.77116 70.9485 6.71358C71.0676 6.69054 71.162 6.84148 71.2661 6.71713C71.2771 6.72499 71.2962 6.73274 71.2963 6.73808C71.2851 6.90387 71.5161 6.73499 71.5502 6.8387C71.5853 6.82752 71.6503 6.81325 71.6501 6.80256C71.6511 6.68234 71.6952 6.72446 71.7853 6.76594C71.8373 6.79192 71.9076 6.7749 71.9195 6.84954C71.9315 6.93218 71.9823 6.87537 72.02 6.85079C72.0738 6.81798 72.1855 6.8458 72.1813 6.74167C72.1779 6.68829 72.3081 6.68112 72.336 6.73415C72.3611 6.78456 72.3696 6.80848 72.4514 6.83138C72.5849 6.86957 72.6699 6.73481 72.8229 6.80745C72.9159 6.85156 73.0842 6.85454 73.212 6.8661C73.3533 6.87747 73.5095 6.79246 73.6611 6.76095C73.745 6.74374 73.8529 6.69147 73.8692 6.88358C73.8723 6.91025 73.8882 6.88865 73.8934 6.86721C73.8985 6.84844 73.8928 6.82715 73.8925 6.80845C73.8629 6.82223 73.8196 6.83352 73.8118 6.855C73.8012 6.87652 73.826 6.90556 73.8692 6.88625C73.9806 6.89003 74.1151 6.80265 74.2245 6.86256C74.3147 6.90937 74.4534 6.92613 74.5701 6.92181C74.7166 6.91708 74.8599 6.87767 75.009 6.85688C75.1173 6.842 75.2125 6.84867 75.1923 6.96116C75.1872 6.98527 75.2202 7.01419 75.2342 7.04071C75.2473 7.01381 75.255 6.98165 75.2765 6.95997C75.2979 6.9383 75.3572 6.91075 75.3654 6.91598C75.4777 6.9892 75.5477 6.94281 75.6255 6.8776C75.6496 6.85589 75.7256 6.85215 75.7664 6.86226C75.84 6.87993 75.9084 6.91637 75.9767 6.94746C76.0804 6.99142 76.1154 6.96956 76.1387 6.88374C76.1567 6.8167 76.1951 6.84555 76.2229 6.89324C76.2396 6.9224 76.2888 6.94041 76.3243 6.96128C76.4152 6.85582 76.5063 6.96406 76.5985 6.95742C76.669 6.95376 76.7152 6.95311 76.7467 6.88321C76.7863 6.80251 76.8677 6.80137 76.9013 6.87303C76.9321 6.93671 76.9924 6.9786 77.0353 6.94327C77.1211 6.86726 77.1684 6.94407 77.2308 6.94052C77.4071 6.93537 77.5857 7.08781 77.7655 6.93835C77.779 6.92748 77.8305 6.92675 77.847 6.93721C77.9837 7.01009 78.1163 6.97617 78.2486 6.93156C78.4648 7.05408 78.7164 6.9891 78.9414 6.96457C79.0444 6.95511 79.071 6.91466 79.0696 7.01353C79.0698 7.02421 79.1271 7.04745 79.1325 7.04203C79.2833 6.95442 79.4399 7.08579 79.5776 7.0331C79.6883 6.99147 79.7667 6.969 79.8412 7.05878C79.8495 7.06935 79.9038 7.06859 79.9281 7.06023C80.0093 7.03772 80.1278 6.96927 80.1579 6.98755C80.281 7.05794 80.3414 6.91017 80.4479 6.95676C80.519 6.99049 80.5947 6.97339 80.6788 6.96687C80.79 6.95996 80.9214 7.03826 81.0254 7.09557C81.1184 7.14769 81.2408 7.16734 81.2834 7.10797C81.43 6.9109 81.6851 7.09965 81.8493 6.99851C81.9302 7.15498 82.1252 6.93051 82.2247 7.05467C82.2274 7.05731 82.3352 6.99969 82.3976 6.99614C82.5414 6.98611 82.6854 6.99477 82.8291 6.98474C83.0054 6.97157 83.1989 7.02762 83.3548 6.91591C83.3709 6.90499 83.4117 6.90976 83.4389 6.91472C83.5722 6.93155 83.7332 6.99607 83.8278 6.96002C83.9655 6.90732 84.0931 6.9082 84.2287 6.90095C84.2721 6.89767 84.3182 6.89168 84.3563 6.90183C84.449 6.92724 84.4752 7.05777 84.6477 6.96719C84.7097 6.93427 84.8815 6.99062 84.9825 7.03194C85.1737 7.11207 85.3173 7.09135 85.4594 6.96914C85.5104 6.92835 85.5915 6.9005 85.6672 6.88074C85.8052 6.84674 85.7609 6.97826 85.8126 6.98555C85.9485 7.00234 86.0481 7.13184 86.2286 7.03313C86.3148 6.98651 86.4809 7.02157 86.589 6.988C86.6728 6.96278 86.8138 7.14779 86.8382 6.9471C86.8407 6.9337 86.8706 6.93595 86.9073 7.03962C86.9158 7.06355 86.9405 7.08457 86.9572 7.10838C86.9676 7.08152 86.9835 7.05191 86.9913 7.02509C86.9964 7.00364 86.9797 6.97449 86.9959 6.96358C87.0093 6.95271 87.0501 6.95748 87.0799 6.95438C87.0789 7.07461 87.144 7.07637 87.2599 7.0133C87.3487 6.96129 87.4277 6.97888 87.5287 7.01486C87.5887 7.03539 87.7179 6.96145 87.7726 6.98472C87.9857 7.08057 88.2128 7.01861 88.4329 7.03421C88.5579 7.04314 88.6908 7.03059 88.8025 7.06375C88.8816 7.08668 88.8948 7.05978 88.927 7.03528C88.9861 6.98904 89.0262 6.94573 89.1141 7.02197C89.2158 7.1087 89.2974 6.92856 89.4423 6.99599C89.5297 7.0375 89.7361 7.04528 89.8006 6.99896C89.9189 6.91449 90.0736 7.10733 90.142 6.95142C90.1585 6.96455 90.1804 6.97493 90.1914 6.9908C90.2108 7.01457 90.1766 7.09519 90.2628 7.04857C90.4137 6.96363 90.5624 6.92414 90.7291 7.00462C90.8275 7.05132 90.8716 6.90644 90.9757 6.97176C91.0332 7.00836 91.1134 6.9164 91.1986 6.99C91.248 7.03205 91.3666 6.96894 91.4531 6.94368C91.5099 6.92686 91.6002 6.98169 91.6764 6.98863C91.7715 6.99531 91.8803 7.01248 91.9443 6.93144C92.2662 7.04446 92.607 6.95685 92.9384 6.9709C93.1394 6.97876 93.1393 6.96807 93.2895 6.84308C93.2958 6.89909 93.2613 6.95567 93.4 6.9751C93.5034 6.98967 93.5664 6.84186 93.6821 6.95777C93.7316 7.00516 93.8545 6.86185 93.9509 6.95934C93.9591 6.96724 94.0188 6.96373 94.0295 6.95289C94.147 6.815 94.2451 6.84301 94.3715 6.95076C94.4237 6.99277 94.5844 7.03058 94.622 7.00601C94.7055 6.95408 94.7741 7.00921 94.8092 6.99803C95.0523 6.90913 95.2915 6.92981 95.5365 6.97713L96.1488 6.89105C96.249 6.87362 96.3674 6.80249 96.3994 6.95164C96.4023 6.96763 96.5167 6.99274 96.5275 6.98457C96.6293 6.88964 96.7682 6.92242 96.885 6.92879C97.0752 6.93948 97.2619 6.89945 97.4663 6.95535C97.6135 6.99603 97.8239 6.90224 98.0194 6.90484C98.2692 6.90934 98.5135 6.90591 98.7596 6.84101C98.9436 6.79301 99.1679 6.7204 99.3492 6.87279C99.3684 6.88855 99.4364 6.89561 99.4661 6.88451C99.6928 6.79583 99.8951 6.88916 100.107 6.91557C100.134 6.91786 100.167 6.90405 100.197 6.89828C100.345 6.86948 100.486 6.84613 100.637 6.91347C100.691 6.93675 100.789 6.91401 100.864 6.90493C100.902 6.90172 100.94 6.88516 100.973 6.86868C101.094 6.80553 100.987 7.10089 101.161 6.93549C101.26 6.8406 101.388 6.86819 101.51 6.8638C101.624 6.85952 101.741 6.86056 101.855 6.85895C101.985 6.85712 102.112 6.85533 102.243 6.8535C102.357 6.8519 102.473 6.85026 102.587 6.84866C102.715 6.84686 102.845 6.82901 102.931 6.92932C102.942 6.94252 103.007 6.94962 103.018 6.94145C103.219 6.7543 103.497 6.85457 103.738 6.84317C103.812 6.83947 103.89 6.83569 103.969 6.83458C104.088 6.83023 104.232 6.78281 104.331 6.8669C104.429 6.951 104.487 6.95821 104.517 6.83489C104.517 6.83222 104.536 6.82928 104.547 6.82913C104.618 6.8228 104.515 7.02994 104.706 6.89369C104.762 6.8555 104.955 6.89285 104.977 6.85782C105.048 6.74462 105.16 6.94875 105.201 6.82795C105.421 6.80082 105.648 6.75221 105.822 6.91541C105.835 6.9259 105.925 6.91128 105.957 6.88946C105.987 6.86767 105.925 6.76435 106.054 6.83734C106.076 6.85039 106.095 6.86615 106.117 6.88187C106.246 6.96821 106.249 6.97352 106.451 6.91991C106.633 6.87195 106.8 6.80548 106.989 6.90969C107.022 6.92793 107.113 6.88657 107.178 6.8723C107.216 6.86375 107.273 6.83891 107.289 6.84669C107.495 6.96937 107.729 6.87257 107.947 6.89622C108.023 6.90584 108.131 6.86959 108.122 6.97658C108.122 6.98192 108.174 6.99455 108.198 6.99154C108.277 6.98242 108.355 6.9546 108.436 6.95613C108.561 6.95438 108.689 6.98463 108.811 6.97223C108.925 6.95995 109.033 6.89699 109.147 6.88471C109.233 6.87547 109.332 6.91416 109.424 6.91554C109.508 6.91435 109.592 6.88913 109.676 6.8746C109.852 6.84541 110.02 6.79764 110.195 6.89669C110.26 6.93317 110.383 6.93145 110.475 6.92481C110.594 6.91512 110.71 6.88143 110.827 6.8611C110.9 7.02036 111.046 6.83664 111.167 6.89639C111.254 6.94058 111.411 6.91166 111.539 6.91253C111.669 6.91337 111.797 6.91425 111.927 6.90708C112.062 6.89983 112.169 6.91971 112.265 6.99583C112.325 7.04307 112.423 7.06573 112.51 7.08588C112.557 7.09591 112.616 7.07638 112.67 7.0676C112.64 7.03864 112.612 7.00697 112.582 6.98068C112.566 6.96489 112.541 6.95188 112.522 6.93612C112.551 6.92234 112.584 6.90052 112.614 6.9001C113.561 6.88412 114.508 6.86012 115.455 6.86818C115.651 6.87077 115.838 6.83075 116.031 6.85208C116.096 6.85918 116.18 6.85799 116.221 6.8868C116.292 6.93656 116.35 6.79416 116.411 6.8868C116.422 6.90268 116.498 6.89359 116.52 6.91199C116.561 6.94346 116.584 6.98856 116.617 7.0255C116.638 6.99047 116.67 6.92057 116.675 6.92049C116.885 6.9683 117.071 6.72793 117.294 6.88776C117.315 6.90348 117.378 6.88658 117.416 6.89406C117.595 6.92893 117.746 6.79859 117.956 6.87311C118.087 6.91936 118.309 6.92157 118.485 6.83629C118.525 6.81703 118.626 6.87705 118.694 6.87075C118.927 6.85144 119.175 6.92543 119.391 6.79952C119.525 6.87777 119.657 6.8118 119.793 6.79921C119.963 6.78346 120.085 6.77373 120.184 6.64144C120.243 6.56315 120.32 6.66357 120.329 6.7516C120.321 6.77041 120.338 6.7595 120.354 6.75125C120.34 6.74076 120.329 6.7329 120.315 6.72241C120.302 6.73595 120.289 6.74683 120.278 6.76034C120.275 6.76304 120.294 6.77346 120.329 6.7516C120.443 6.74198 120.533 6.75942 120.62 6.78224C120.697 6.80254 120.765 6.84699 120.846 6.78976C120.931 6.8687 121.001 6.84634 121.09 6.78365C121.109 6.77003 121.213 6.8407 121.259 6.82936C121.318 6.81517 121.358 6.75584 121.415 6.72299C121.442 6.70925 121.507 6.70032 121.526 6.71341C121.674 6.81551 121.852 6.74623 122.015 6.75729C122.17 6.76847 122.335 6.74211 122.48 6.76947C122.605 6.79442 122.748 6.71494 122.86 6.80686C122.877 6.81998 122.982 6.75974 123.015 6.77531C123.083 6.80373 123.132 6.82708 123.196 6.77809C123.285 6.71006 123.319 6.84048 123.4 6.80461C123.457 6.77977 123.516 6.75489 123.579 6.74066C123.682 6.71785 123.767 6.81549 123.902 6.74414C123.988 6.69751 124.154 6.74059 124.282 6.72811C124.458 6.71228 124.649 6.77638 124.81 6.66192C124.837 6.64284 124.921 6.65501 124.976 6.66493C125.052 6.67722 125.126 6.70557 125.204 6.71514C125.275 6.72217 125.354 6.72907 125.416 6.7095C125.503 6.68424 125.52 6.76414 125.623 6.74933C125.745 6.73159 125.872 6.69508 126.005 6.70122C126.176 6.7095 126.35 6.69905 126.521 6.69665C126.678 6.69443 126.836 6.69222 126.993 6.69001C127.064 6.68902 127.137 6.68265 127.208 6.687C127.414 6.70279 127.59 6.64957 127.729 6.54342C127.848 6.4536 127.846 6.51774 127.855 6.58707C127.855 6.59241 127.907 6.60237 127.912 6.59695C128.022 6.4752 128.116 6.63415 128.192 6.60638C128.308 6.562 128.373 6.55842 128.456 6.6374C128.516 6.69532 128.515 6.63656 128.542 6.60413C128.614 6.52297 128.739 6.51053 128.786 6.58467C128.822 6.63759 128.833 6.66415 128.92 6.66827C129.086 6.67663 129.259 6.6181 129.415 6.69872C129.428 6.70654 129.466 6.70334 129.472 6.69792C129.616 6.53294 129.742 6.60062 129.863 6.70845C129.989 6.60517 130.026 6.73287 130.108 6.7531C130.198 6.77587 130.303 6.75569 130.393 6.77847C130.586 6.82117 131.1 6.87005 131.259 6.8037C131.37 6.7594 131.411 6.7615 131.507 6.81091C131.643 6.88379 131.814 6.88672 132.086 6.89359C132.121 6.8931 132.094 6.88013 132.061 6.87524C132.037 6.87024 132.007 6.876 131.983 6.87635C132.002 6.89745 132.019 6.92927 132.043 6.93694C132.073 6.94453 132.114 6.92793 132.086 6.89626C132.087 6.75734 132.245 6.8219 132.381 6.81999C132.427 6.81935 132.477 6.87208 132.52 6.86612C132.666 6.84804 132.83 6.91519 132.956 6.81191C133.039 6.88822 133.145 6.94282 133.26 6.98395C133.347 7.01478 133.487 6.92199 133.514 7.07389C133.506 7.0927 133.522 7.08178 133.538 7.07354C133.524 7.06305 133.513 7.05519 133.5 7.0447C133.486 7.05824 133.473 7.06912 133.462 7.08262C133.46 7.08533 133.479 7.09575 133.514 7.07389C133.584 7.02482 133.627 7.00284 133.673 6.9835C133.687 7.0207 133.717 7.06034 133.71 7.09785C133.694 7.16485 133.644 7.22701 133.634 7.29393C133.614 7.4171 133.635 7.41412 133.809 7.39031C134.015 7.3607 134.226 7.34972 134.435 7.35479C134.514 7.35636 134.486 7.49299 134.66 7.47987C134.874 7.4635 135.118 7.46541 135.41 7.39719C135.521 7.37159 135.572 7.28005 135.495 7.21969C135.451 7.18558 135.38 7.17054 135.323 7.14464C135.304 7.13689 135.287 7.12109 135.271 7.10797C135.295 7.09961 135.316 7.08595 135.341 7.08027C135.444 7.05745 135.589 6.99396 135.639 7.01998C135.745 7.07993 135.848 7.06779 135.957 7.07161C136.074 7.07531 136.037 7.14262 136.037 7.18802C136.035 7.24148 136.088 7.32355 135.942 7.32561C135.912 7.32603 135.879 7.31848 135.857 7.32946C135.828 7.34324 135.79 7.36781 135.788 7.38922C135.785 7.41062 135.818 7.44488 135.848 7.45248C135.886 7.46263 135.932 7.4513 135.976 7.45336C136.166 7.46404 136.372 7.40505 136.544 7.50681C136.552 7.51204 136.574 7.51174 136.585 7.50624C136.79 7.41788 136.986 7.44985 137.206 7.4895C137.421 7.52922 137.662 7.49377 137.893 7.48786C137.963 7.4842 138.031 7.45119 138.101 7.4502C138.194 7.45157 138.289 7.48229 138.381 7.47832C138.457 7.47458 138.53 7.42013 138.603 7.41911C138.717 7.4175 138.862 7.48225 138.943 7.45173C139.078 7.39908 139.16 7.44601 139.277 7.45505C139.519 7.47302 139.783 7.50672 140.026 7.41781C140.064 7.40393 140.137 7.44029 140.175 7.42373C140.28 7.37951 140.369 7.29278 140.477 7.27523C140.564 7.26065 140.625 7.36398 140.742 7.39172C140.979 7.44716 141.179 7.38291 141.387 7.33991C141.528 7.31122 141.666 7.25051 141.807 7.24586C141.967 7.24093 142.143 7.18504 142.296 7.28974C142.326 7.31069 142.506 7.3509 142.51 7.21461C142.509 7.2066 142.572 7.18702 142.58 7.19225C142.64 7.23415 142.714 7.25448 142.751 7.19519C142.769 7.16821 142.706 7.11033 142.676 7.06802C142.651 7.03364 142.602 7.00495 142.593 6.96767C142.584 6.93306 142.594 6.86881 142.627 6.85766C142.694 6.83 142.741 6.84805 142.766 6.91982C142.797 7.00754 142.906 7.00334 142.926 6.92291C142.965 6.77277 143.104 6.85629 143.194 6.84435C143.308 6.83207 143.257 6.91292 143.28 6.95535C143.352 7.10125 143.404 7.11923 143.707 7.05085C143.796 7.0309 143.786 7.04975 143.8 7.08962C143.806 7.10557 143.841 7.11843 143.863 7.13148C143.916 7.03189 143.983 7.16986 144.047 7.12354C144.166 7.03639 144.168 7.03903 144.204 7.23621C144.196 7.25502 144.212 7.24411 144.228 7.23587C144.215 7.22538 144.204 7.21752 144.19 7.20703C144.176 7.22057 144.163 7.23144 144.152 7.24495C144.15 7.24766 144.169 7.25808 144.204 7.23621C144.257 7.19005 144.303 7.17604 144.311 7.15456C144.335 7.08745 144.317 6.9755 144.366 6.96146C144.46 6.93074 144.593 6.93689 144.699 6.95409C144.77 6.96646 144.822 7.02449 144.883 7.06372C144.934 7.0069 144.977 7.01163 145.035 7.06158C145.131 7.14037 145.232 7.20573 145.276 7.02881C145.279 7.02075 145.384 7.00858 145.412 7.0269C145.447 7.04777 145.559 7.06223 145.473 7.13557C145.446 7.15731 145.463 7.20516 145.458 7.23996C145.488 7.22619 145.523 7.21768 145.547 7.19864C145.62 7.14686 145.684 7.0765 145.705 7.22313C145.711 7.25511 145.782 7.28083 145.823 7.30963C145.836 7.27205 145.852 7.2371 145.865 7.19952C145.873 7.18071 145.87 7.15938 145.883 7.14316C145.886 7.13778 145.926 7.13721 145.94 7.14503C146.044 7.20768 146.101 7.21222 146.132 7.09425C146.142 7.0567 146.253 7.02576 146.323 7.00073C146.434 6.96444 146.475 6.99859 146.471 7.08147C146.469 7.10821 146.491 7.13729 146.502 7.16652C146.532 7.15007 146.578 7.13874 146.591 7.11451C146.684 6.95826 146.854 6.90511 147.071 6.91275C147.143 6.95182 147.206 6.99902 147.282 7.02733C147.339 7.04789 147.415 7.04416 147.483 7.04854C147.467 7.07815 147.449 7.1078 147.436 7.14004C147.433 7.14275 147.458 7.1611 147.466 7.15832C147.588 7.14592 147.686 7.15256 147.703 7.26451C147.704 7.27252 147.777 7.27416 147.815 7.27362C147.826 7.27347 148.116 7.24535 148.119 7.25066C148.199 7.35104 148.331 7.32514 148.456 7.33674C148.704 7.3573 148.963 7.25749 149.201 7.38238C149.226 7.39539 149.311 7.33006 149.377 7.32381C149.707 7.28176 150.056 7.37837 150.38 7.25628C150.391 7.25078 150.432 7.26624 150.435 7.27688C150.485 7.38036 150.551 7.47827 150.531 7.59609C150.516 7.68179 150.449 7.71212 150.363 7.75341C150.292 7.78645 150.234 7.84605 150.199 7.9053C150.106 8.06155 149.985 8.13538 149.78 8.20505C149.599 8.2637 149.371 8.27224 149.256 8.42345C149.145 8.40365 149.101 8.59126 148.956 8.47576C148.939 8.46264 148.861 8.46641 148.844 8.48267C148.681 8.64525 148.393 8.60923 148.196 8.71351L147.778 8.90104C147.729 8.90172 147.67 8.91592 147.634 8.90306C147.59 8.88497 147.544 8.84556 147.532 8.81099C147.504 8.71522 147.442 8.71877 147.361 8.77066C147.294 8.81435 147.282 8.7958 147.265 8.74261C147.257 8.71602 147.164 8.68259 147.161 8.68263C147.043 8.7858 146.964 8.73349 146.846 8.66836C146.759 8.61883 146.612 8.63425 146.503 8.59838C146.391 8.56255 146.313 8.5503 146.202 8.6133C146.143 8.64619 146.013 8.68541 145.973 8.55774C145.973 8.5524 145.973 8.56308 145.974 8.5711C145.995 8.56545 146.02 8.56244 146.038 8.55149C146.044 8.54874 146.03 8.52756 146.024 8.51428C146.008 8.5252 145.989 8.53348 145.973 8.55774C145.86 8.57804 145.721 8.53725 145.693 8.6819C145.683 8.73547 145.572 8.77443 145.551 8.82815C145.512 8.9409 145.47 8.84265 145.426 8.84326C145.367 8.8441 145.307 8.89034 145.251 8.89114C145.115 8.89305 144.974 8.93777 144.843 8.86481C144.813 8.84654 144.734 8.85031 144.702 8.8668C144.575 8.93269 144.483 8.91529 144.37 8.84207C144.247 8.76366 144.008 8.76435 143.911 8.82448C143.887 8.84085 143.888 8.87824 143.877 8.90777C143.858 8.88667 143.839 8.86824 143.822 8.84443C143.733 8.70677 143.569 8.6129 143.448 8.49439C143.415 8.4628 143.368 8.42606 143.319 8.41873C143.118 8.39484 142.914 8.37634 142.708 8.36321C142.612 8.35653 142.52 8.34715 142.5 8.4623C142.492 8.50248 142.322 8.53159 142.222 8.55437C142.143 8.5715 142.086 8.55093 142.09 8.47874C142.096 8.33974 142.018 8.34619 141.894 8.42006C141.843 8.45016 141.778 8.46977 141.718 8.48931C141.648 8.51167 141.589 8.51785 141.568 8.44066C141.563 8.4167 141.464 8.38068 141.465 8.38335C141.355 8.48374 141.252 8.36229 141.141 8.37988C141.02 8.40029 140.897 8.38331 140.803 8.47545C140.72 8.55409 140.633 8.54997 140.624 8.42722C140.623 8.41921 140.585 8.40105 140.569 8.40395C140.509 8.4128 140.439 8.45119 140.393 8.44115C140.18 8.38537 139.973 8.32149 139.771 8.2522C139.643 8.20859 139.68 8.1119 139.671 8.03189C139.668 8.01056 139.635 7.99499 139.615 7.97389C139.605 7.99274 139.589 8.009 139.589 8.02769C139.584 8.08119 139.615 8.14754 139.583 8.18272C139.535 8.23148 139.474 8.33652 139.356 8.26338C139.263 8.20592 139.166 8.24468 139.079 8.22186C138.913 8.18146 138.77 8.29031 138.585 8.23949C138.421 8.19637 138.216 8.23399 138.031 8.23926C137.879 8.24139 137.713 8.21167 137.609 8.33869C137.601 8.34682 137.552 8.33949 137.519 8.33728C137.193 8.30179 136.875 8.23147 136.536 8.2576C136.416 8.26729 136.284 8.2932 136.177 8.20655C136.157 8.19079 136.039 8.25924 135.963 8.26565C135.835 8.27546 135.662 8.30728 135.588 8.26023C135.457 8.17392 135.399 8.32967 135.301 8.27763C135.246 8.24901 135.189 8.2231 135.129 8.1999C135.101 8.1896 135.069 8.18205 135.039 8.17445C135.013 8.27366 134.973 8.341 134.83 8.23882C134.718 8.15759 134.674 8.31315 134.576 8.28514C134.546 8.27755 134.513 8.24863 134.507 8.22466C134.496 8.16873 134.465 8.14511 134.415 8.19925C134.329 8.29128 134.207 8.293 134.077 8.29483C133.965 8.29639 133.835 8.28487 133.748 8.32348C133.624 8.37866 133.569 8.27258 133.458 8.29819C133.29 8.33794 133.125 8.38033 132.938 8.37762C132.574 8.37472 132.222 8.27548 131.854 8.32073C131.799 8.32683 131.734 8.28234 131.674 8.26449C131.581 8.2364 131.51 8.18932 131.405 8.28696C131.301 8.38193 131.118 8.35777 130.979 8.30897C130.854 8.26532 130.748 8.27215 130.626 8.30859C130.54 8.33385 130.44 8.34861 130.345 8.34461C130.187 8.34148 129.999 8.27466 129.88 8.31641C129.721 8.37207 129.576 8.3367 129.427 8.3575C129.322 8.37234 129.196 8.3367 129.119 8.42595C129.025 8.32308 128.95 8.38825 128.842 8.42183C128.761 8.44434 128.64 8.38993 128.537 8.37268C128.355 8.33784 128.146 8.37817 128.055 8.46494C127.905 8.60596 127.881 8.60363 127.697 8.48867C127.56 8.40244 127.391 8.35672 127.21 8.40469C127.096 8.433 126.997 8.4905 126.886 8.5161C126.788 8.53884 126.701 8.5267 126.825 8.43948C126.798 8.42651 126.77 8.39751 126.746 8.40052C126.54 8.42479 126.319 8.34775 126.127 8.45463C126.048 8.37561 125.859 8.46909 125.8 8.34703C125.789 8.32314 125.759 8.29685 125.729 8.28659C125.601 8.24564 125.456 8.38125 125.365 8.30772C125.264 8.22634 125.126 8.25766 125.033 8.20287C124.964 8.16109 124.946 8.2121 124.908 8.21798C124.786 8.23038 124.637 8.25651 124.539 8.2205C124.43 8.17929 124.387 8.20661 124.292 8.22931C124.119 8.26647 123.923 8.25319 123.738 8.25044C123.605 8.24697 123.475 8.27551 123.333 8.20805C123.257 8.17173 123.081 8.24365 122.949 8.26421C122.908 8.27013 122.848 8.27898 122.824 8.2633C122.695 8.17962 122.518 8.1634 122.372 8.16012C122.266 8.15627 122.125 8.17695 122.003 8.20804C121.941 8.22495 121.834 8.12494 121.803 8.26428C121.795 8.29912 121.692 8.2979 121.656 8.22628C121.631 8.18122 121.562 8.14745 121.51 8.10811C121.428 8.20545 121.308 8.01745 121.204 8.13913C121.145 8.20674 121.063 8.16782 121.048 8.07987C121.045 8.06389 120.937 8.0387 120.92 8.04962C120.818 8.12585 120.826 8.09369 120.781 8.01417C120.748 7.94785 120.623 7.97098 120.526 8.01775C120.413 8.0701 120.276 8.16286 120.158 8.10841C120.049 8.05919 119.951 8.05255 119.843 8.05942C119.694 8.06953 119.545 7.93804 119.398 8.063L118.913 7.98699C118.842 7.92388 118.761 7.9277 118.707 7.99523C118.574 8.16541 118.354 8.14446 118.142 8.14743C118.036 8.14892 118.035 8.10352 118.035 8.04743C118.034 8.01805 118.012 7.99164 118.001 7.96509C117.985 7.98935 117.955 8.01114 117.953 8.03522C117.946 8.11279 117.964 8.20871 117.821 8.08783C117.683 7.97222 117.638 8.03697 117.574 8.14205C117.553 8.17975 117.445 8.17593 117.435 8.09592C117.46 8.08756 117.484 8.08188 117.506 8.07356C117.481 8.06055 117.456 8.04487 117.415 8.03209C117.41 8.03216 117.421 8.03201 117.434 8.03182C117.426 8.01591 117.42 7.99729 117.407 7.98412C117.401 7.98153 117.371 7.98996 117.355 7.99553C117.369 8.0087 117.383 8.01919 117.415 8.03209C117.435 8.05319 117.435 8.07455 117.435 8.09592C117.378 8.09672 117.303 8.11649 117.267 8.09561C117.138 8.02262 117.011 8.04311 116.909 8.10599C116.785 8.18253 116.649 8.17108 116.511 8.16769C116.473 8.16822 116.421 8.13422 116.404 8.10507C116.32 7.95665 116.323 7.95394 116.189 8.04666C116.156 8.06848 116.13 8.0929 116.097 8.11472C116.054 8.14471 116.057 8.14201 115.967 8.08718C115.939 8.06886 115.896 8.06146 115.86 8.05661C115.645 8.0249 115.426 8.07073 115.259 8.13719C115.081 8.20915 114.996 8.18897 114.94 8.07756C114.898 7.98999 114.863 8.00384 114.766 8.02925C114.639 8.06042 114.466 8.09758 114.37 8.05886C114.113 7.95293 113.927 8.04371 113.719 8.12143C113.679 8.13536 113.622 8.12814 113.573 8.12883C113.592 8.1072 113.613 8.08285 113.632 8.06122C113.602 8.04828 113.56 8.01948 113.547 8.02501C113.48 8.06068 113.423 8.10956 113.35 8.1373C113.318 8.15111 113.217 8.12581 113.217 8.11513C113.21 7.99235 113.156 8.03317 113.084 8.08762C113.043 8.11757 113.025 8.17126 112.927 8.11654C112.855 8.0748 112.803 8.03813 112.748 7.98548C112.682 7.92496 112.748 8.18583 112.567 8.04412C112.512 8.00215 112.393 8.03855 112.305 8.09322C112.253 8.126 112.136 8.10894 112.052 8.10211C111.933 8.09044 111.777 8.02317 111.71 8.05884C111.599 8.11383 111.493 8.09395 111.393 8.11672C111.306 8.13664 111.239 8.18567 111.167 8.10386C111.112 8.04053 111.041 8.0335 110.958 8.09345C110.931 8.11252 110.863 8.10547 110.814 8.09814C110.776 8.09333 110.74 8.05911 110.708 8.06223C110.562 8.08032 110.415 8.10909 110.269 8.12717C110.134 8.14511 109.992 8.14976 109.854 8.16506C109.805 8.17109 109.749 8.1986 109.708 8.18849C109.49 8.13545 109.43 8.12828 109.26 8.1654C109.23 8.17116 109.176 8.18528 109.173 8.17998C109.09 8.07428 108.98 8.14529 108.874 8.14144C108.646 8.13663 108.384 8.23381 108.194 8.05482C108.175 8.03906 108.096 8.04551 108.053 8.0568C107.942 8.08508 107.791 8.17268 107.736 8.14673C107.597 8.07657 107.459 8.12926 107.329 8.10171C107.269 8.08919 107.222 8.03642 107.164 8.00784C107.151 8.00002 107.105 8.01403 107.091 8.02757C107.07 8.04924 107.06 8.08145 107.046 8.10835C107.033 8.09251 107.016 8.07404 107.002 8.05821C106.975 8.02387 106.952 7.98678 106.919 7.95786C106.867 7.91051 106.805 7.90604 106.743 7.955C106.724 7.97129 106.697 7.98236 106.684 8.00124C106.644 8.05256 106.582 8.10419 106.577 8.15768C106.559 8.36364 106.46 8.13261 106.393 8.1763C106.342 8.20907 106.236 8.19988 106.155 8.20903C106.125 8.21213 106.092 8.21792 106.063 8.22369C105.943 8.24406 106.068 8.00456 105.844 8.1199C105.739 8.17481 105.64 8.09338 105.539 8.07343C105.493 8.06339 105.434 8.08293 105.379 8.09437C105.328 8.10578 105.282 8.12246 105.233 8.1365C105.247 8.10693 105.278 8.05572 105.27 8.05049C105.15 7.99074 105.033 7.9817 104.934 8.07926C104.882 8.07464 104.815 8.08094 104.782 8.06003C104.705 8.00768 104.637 7.99795 104.578 8.06289C104.477 8.17652 104.365 8.14336 104.242 8.08899C104.223 8.08124 104.188 8.08975 104.128 8.10127C104.133 8.07983 104.157 8.0688 104.157 8.05812C104.157 8.03141 104.143 8.00489 104.137 7.97559C104.118 7.97853 104.083 7.98436 104.083 7.98704C104.083 8.02176 104.092 8.05369 104.131 8.09856C104.05 8.1558 104.047 8.15851 103.992 8.0925C103.97 8.06609 103.997 8.02298 103.905 8.05098C103.799 8.08185 103.674 8.08093 103.52 8.1018C103.512 8.09124 103.536 8.07754 103.557 8.06655C103.538 8.05613 103.516 8.03507 103.497 8.03534C103.462 8.0385 103.427 8.05235 103.392 8.06086C103.419 8.07384 103.444 8.08952 103.517 8.10184C103.486 8.22783 103.344 8.15236 103.238 8.14583C103.165 8.14152 103.099 8.09169 103.028 8.0633C102.932 8.02457 102.848 8.02042 102.762 8.08574C102.717 8.12111 102.655 8.14602 102.595 8.1709C102.574 8.17922 102.533 8.17979 102.511 8.17208C102.331 8.1105 102.15 8.20654 101.982 8.17418C101.895 8.1567 101.799 8.13667 101.718 8.11378C101.608 8.08058 101.57 8.23874 101.471 8.14396C101.42 8.1794 101.352 8.20707 101.32 8.25026C101.294 8.28536 101.311 8.33054 101.229 8.28628C101.188 8.26548 101.128 8.26632 101.076 8.25636C100.924 8.22645 100.804 8.39643 100.651 8.30508C100.516 8.22415 100.379 8.28219 100.243 8.26807C100.123 8.25639 100.007 8.28207 99.8812 8.21973C99.8183 8.18588 99.6565 8.26563 99.5399 8.27528C99.4613 8.28173 99.318 8.32648 99.3351 8.19C99.3052 8.19042 99.2753 8.1855 99.2482 8.18855C99.1235 8.19832 99.0016 8.2214 98.8795 8.22312C98.7465 8.22499 98.6093 8.12006 98.4778 8.23143C98.3269 8.11334 98.1821 8.24093 98.0328 8.24036C97.9404 8.23898 97.8315 8.21113 97.7566 8.29233C97.7432 8.30587 97.6618 8.30969 97.6481 8.29652C97.4638 8.13081 97.3268 8.23425 97.1953 8.34028C97.1336 8.39191 97.1113 8.34948 97.0703 8.32868C96.9062 8.2455 96.833 8.24921 96.5806 8.25542C96.4341 8.26015 96.2773 8.3051 96.1241 8.22711C96.0777 8.20372 95.9591 8.2695 95.8749 8.26534C95.7554 8.26168 95.6242 8.19674 95.5268 8.21948C95.424 8.24496 95.3295 8.28369 95.2154 8.27728C95.1258 8.2732 94.9662 8.31551 95.1 8.17472C95.0618 8.16724 95.0045 8.144 94.9857 8.15762C94.9076 8.20413 94.8433 8.26381 94.7707 8.31292C94.7546 8.32383 94.703 8.32455 94.6866 8.3141C94.6565 8.29582 94.6424 8.26396 94.6204 8.24023C94.6099 8.26976 94.6049 8.29922 94.5863 8.32352C94.5809 8.32894 94.5291 8.31631 94.4992 8.31139C94.4448 8.30414 94.3931 8.29685 94.3388 8.29227C94.3168 8.27121 94.2948 8.25015 94.2727 8.22908C94.2378 8.25095 94.2028 8.27281 94.1678 8.29467C94.0481 8.27498 93.9106 8.3437 93.8035 8.25438C93.7952 8.24648 93.7788 8.23603 93.7706 8.23614C93.6949 8.25591 93.6221 8.29433 93.5489 8.29803C93.4783 8.30169 93.3743 8.23904 93.3366 8.25827C93.2045 8.32691 93.083 8.18169 92.9351 8.27994C92.8517 8.33454 92.6667 8.30508 92.5284 8.31771C92.3603 8.33076 92.2025 8.30893 92.0499 8.26566C91.9266 8.37426 91.7518 8.30191 91.6111 8.33327C91.4677 8.36735 91.3412 8.25425 91.2011 8.32568C91.1957 8.32843 91.1519 8.30767 91.1518 8.29699C91.1334 8.14764 91.0068 8.21621 90.9093 8.23094C90.8768 8.23674 90.8497 8.24513 90.8173 8.2536C90.8015 8.09354 90.6026 8.23525 90.5119 8.15905C90.4762 8.1275 90.3787 8.14489 90.3585 8.05969C90.3469 8.00643 90.2357 8.01867 90.193 8.07003C90.1102 8.16737 89.9826 8.16382 89.855 8.16294C89.7669 8.07869 89.6828 8.07987 89.5972 8.16656C89.4073 8.17992 89.1893 8.12154 89.0613 8.28362C88.9255 8.28286 88.7899 8.28744 88.6567 8.27595C88.567 8.2692 88.4797 8.2357 88.3925 8.21555C88.3707 8.21051 88.3353 8.19765 88.3353 8.19765C88.1969 8.39995 88.0695 8.22009 87.955 8.1843C87.8187 8.14347 87.7029 8.0142 87.5777 8.1896C87.4147 8.1812 87.2525 8.22356 87.0833 8.16449C86.9605 8.1208 86.7888 8.06712 86.7343 8.24687C86.7317 8.26026 86.6369 8.27495 86.6259 8.26442C86.571 8.2171 86.4322 8.19234 86.5149 8.09233C86.531 8.07341 86.536 8.04662 86.5466 8.0251C86.5086 8.02564 86.4623 8.01827 86.4326 8.03205C86.3975 8.0459 86.3491 8.07329 86.344 8.09741C86.3033 8.29299 86.1687 8.18002 86.0217 8.15537C86.0134 8.1448 86.0377 8.1311 86.0592 8.12011C86.0401 8.10969 86.0181 8.08863 85.9991 8.0889C85.9638 8.09207 85.9287 8.10592 85.8936 8.11442C85.9209 8.1274 85.9456 8.14308 86.019 8.1554C85.9956 8.22519 85.9227 8.25827 85.7895 8.24411C85.7161 8.23713 85.6326 8.28372 85.5542 8.30619C85.5055 8.32023 85.4568 8.32893 85.4081 8.3403C85.4347 8.30253 85.4613 8.26476 85.4907 8.22694C85.504 8.21073 85.5228 8.19711 85.5389 8.18085C85.5143 8.17318 85.4896 8.15483 85.4679 8.15513C85.3838 8.15899 85.2561 8.14743 85.2294 8.17986C85.1519 8.2691 85.1039 8.13621 85.0367 8.18524C84.9185 8.26971 84.8228 8.22564 84.7106 8.15776C84.3848 7.96466 83.973 8.0212 83.6061 8.18664C83.5117 8.22804 83.4715 8.27135 83.478 8.15371C83.4482 8.15413 83.421 8.15451 83.3911 8.15226C83.3929 8.27512 83.3303 8.26532 83.2102 8.21625C83.1638 8.1982 83.0776 8.24483 83.007 8.24849C82.7005 8.26348 82.4064 8.20083 82.11 8.16492C82.0067 8.15302 81.9107 8.27725 81.7976 8.15328C81.748 8.09788 81.5769 8.09494 81.46 8.08323C81.3323 8.07434 81.2022 8.08685 81.0718 8.08334C81.0393 8.0838 81.0036 8.06026 80.979 8.0419C80.8364 7.94506 80.7385 7.93308 80.6174 8.00959C80.5636 8.0424 80.5181 8.08578 80.467 8.1239C80.3998 8.17293 80.3858 8.14107 80.3743 8.09314C80.3714 8.07716 80.3332 8.06434 80.3139 8.04858C80.2151 8.16217 79.9934 8.03438 79.9029 8.16388C79.8976 8.17197 79.8243 8.17033 79.8242 8.16499C79.7309 7.90183 79.517 8.12924 79.373 8.12057C79.0197 8.09348 78.6562 8.11729 78.298 8.12767C78.1786 8.13201 78.0423 8.08852 77.935 8.18085C77.9189 8.19444 77.8372 8.17688 77.7936 8.16147C77.6736 8.12308 77.5595 8.11667 77.4408 8.17444C77.3977 8.19375 77.3111 8.21633 77.2892 8.20061C77.0589 8.04089 76.8502 8.25754 76.6216 8.21801C76.5291 8.20061 76.4164 8.29836 76.3171 8.18756C76.2868 8.15326 76.1647 8.16032 76.0833 8.15879C75.8633 8.15387 75.6438 8.17832 75.4256 8.10926C75.352 8.08625 75.2396 8.00769 75.1191 8.12692C75.0146 8.22724 74.8048 8.16607 74.6392 8.1684C74.6283 8.16855 74.6173 8.15535 74.609 8.14745C74.4855 8.05034 74.4472 8.02951 74.2739 8.05866C74.0572 8.09643 73.8435 8.14752 73.6206 8.12661C73.4983 8.11497 73.3839 8.28488 73.2624 8.13432C73.1569 8.16519 73.0595 8.18525 72.9422 8.14416C72.8903 8.12352 72.7954 8.13554 72.7387 8.1577C72.4689 8.27103 72.1799 8.18693 71.9034 8.21486C71.8465 8.221 71.7832 8.16045 71.7235 8.16129C71.6638 8.16213 71.6074 8.20566 71.5452 8.21989C71.4802 8.23416 71.385 8.22214 71.3501 8.25202C71.2696 8.31726 71.2384 8.22153 71.1952 8.23817C71.1466 8.25755 71.1202 8.31135 71.0715 8.32272C71.0012 8.34241 70.9064 8.3571 70.8437 8.33661C70.7074 8.29578 70.653 8.28586 70.572 8.31905C70.5126 8.34393 70.4978 8.451 70.3938 8.39101C70.2953 8.3363 70.2443 8.37442 70.1825 8.4207C70.1798 8.42341 70.1525 8.41311 70.1552 8.4104C70.2016 8.23343 69.9156 8.36301 69.8568 8.23026C69.7895 8.07894 69.6673 8.07531 69.5058 8.17375C69.4223 8.22301 69.3522 8.25872 69.2435 8.24957C69.2299 8.24709 69.2137 8.24999 69.2001 8.25018C68.9992 8.253 68.7927 8.2372 68.5976 8.26399C68.4188 8.29054 68.2683 8.39417 68.0785 8.41554C68.0406 8.41874 68.0058 8.4593 67.9732 8.45442C67.6741 8.42122 67.3827 8.55087 67.0803 8.47231C66.9877 8.44957 66.8419 8.50772 66.8454 8.36875C66.8211 8.37711 66.775 8.3831 66.7724 8.39382C66.7364 8.53591 66.5973 8.48978 66.5261 8.44537C66.3536 8.34093 66.1696 8.37825 66.0238 8.43907C65.8943 8.49432 65.7882 8.47978 65.6686 8.4681C65.6366 8.31628 65.5782 8.40793 65.481 8.44403C65.3837 8.48012 65.2398 8.47413 65.1282 8.45166C65.0247 8.43174 64.954 8.42205 64.8596 8.46879C64.8057 8.49626 64.6917 8.49786 64.6344 8.47195C64.5688 8.44349 64.5556 8.46772 64.5069 8.48176C64.3367 8.53758 64.1611 8.60416 63.9822 8.62003C63.8331 8.63281 63.6695 8.58703 63.5171 8.55444C63.4953 8.5494 63.5051 8.47714 63.4937 8.4399C63.488 8.42128 63.4661 8.40556 63.4523 8.38972C63.439 8.40594 63.4121 8.42502 63.4123 8.44104C63.4166 8.55051 63.3049 8.52269 63.2315 8.51838C63.0278 8.50789 63.0304 8.50518 62.804 8.62056C62.7879 8.6288 62.728 8.61896 62.7252 8.61365C62.6991 8.49381 62.5147 8.50708 62.4348 8.42806C62.3908 8.38327 62.2656 8.36366 62.1788 8.36755C62.1164 8.37109 62.0548 8.43073 61.9983 8.46893C61.9257 8.51803 61.8643 8.58835 61.7545 8.50174C61.7462 8.49384 61.6736 8.54295 61.6355 8.53814C61.4914 8.52146 61.5446 8.63559 61.4905 8.6497C61.4337 8.66386 61.3517 8.6196 61.2838 8.62322C61.1618 8.63028 61.151 8.63578 61.1799 8.57126C61.1905 8.54706 61.22 8.52528 61.2414 8.50361C61.1926 8.50429 61.1273 8.49185 61.0977 8.51097C60.9199 8.61231 60.6793 8.48746 60.5072 8.60742C60.5045 8.61013 60.4166 8.53123 60.3565 8.50536C60.3346 8.49498 60.2511 8.54424 60.2429 8.53901C60.1358 8.45236 60.0771 8.52264 59.999 8.56915C59.9506 8.59922 59.883 8.61887 59.818 8.63047C59.7205 8.64786 59.6954 8.60013 59.7054 8.53855C59.6756 8.54164 59.6294 8.53695 59.6213 8.54507C59.5707 8.6099 59.5945 8.75649 59.4001 8.63901C59.4001 8.63901 59.3785 8.65267 59.3705 8.6608C59.3092 8.74447 59.2525 8.76664 59.1277 8.76572C59.0435 8.76691 58.9265 8.74985 58.8809 8.78255C58.7868 8.85066 58.6851 8.76393 58.5829 8.82948C58.4053 8.94417 58.4646 8.71894 58.3232 8.7049C58.0623 8.68185 57.8061 8.60798 57.5467 8.69711C57.4441 8.73328 57.484 8.67395 57.4619 8.65022C57.4481 8.63438 57.399 8.61905 57.3937 8.62179C57.2915 8.69001 57.2481 8.6933 57.1949 8.58184C57.1558 8.50225 57.0166 8.45078 56.9396 8.37706C56.8433 8.28758 56.7533 8.45448 56.6245 8.36546C56.5423 8.30784 56.3446 8.34268 56.1977 8.32337C56.0753 8.30639 55.9419 8.27621 55.8143 8.27533C55.7029 8.27423 55.5372 8.26587 55.487 8.36274C55.4526 8.42734 55.4119 8.42524 55.3442 8.44222C55.2306 8.47053 55.1849 8.30822 55.0451 8.40368C54.9859 8.44459 54.8444 8.41452 54.7743 8.45023C54.6718 8.50243 54.5743 8.51449 54.463 8.51605C54.4304 8.51651 54.3657 8.54413 54.3685 8.55478C54.3809 8.65879 54.2801 8.63883 54.1988 8.64532C53.9656 8.66462 53.7205 8.60663 53.4994 8.71392C53.4589 8.73319 53.3881 8.71815 53.3284 8.71899C53.2334 8.71766 53.1501 8.58793 53.0459 8.70961C52.9967 8.68358 52.9421 8.65764 52.8982 8.6262C52.8707 8.60521 52.854 8.57606 52.832 8.55233C52.8215 8.58186 52.8247 8.61654 52.8006 8.63825C52.7389 8.69255 52.6762 8.67206 52.6267 8.62467C52.5607 8.56415 52.495 8.52768 52.4092 8.60635C52.1943 8.57465 51.9999 8.64951 51.8106 8.69758C51.7294 8.71742 51.713 8.7043 51.653 8.68644C51.5494 8.65584 51.4769 8.71563 51.5457 8.78144C51.6476 8.88153 51.5769 8.87451 51.4763 8.86256C51.4545 8.8602 51.4187 8.82063 51.416 8.82334C51.2195 8.94097 51.036 8.82868 50.8458 8.81799C50.7589 8.81387 50.6749 8.82307 50.6224 8.75969C50.5713 8.79514 50.5234 8.85993 50.4719 8.86332C50.3037 8.8737 50.1672 9.01453 49.9733 8.9291C49.9405 8.91353 49.8677 8.94928 49.8162 8.95802C49.5726 9.00686 49.5511 9.02052 49.4135 8.89155C49.2457 8.7363 49.0346 8.78201 48.8284 8.7849C48.7605 8.78586 48.6997 8.89891 48.6199 8.8279C48.5155 8.73587 48.49 8.85377 48.4194 8.85477C48.0233 8.86835 47.6414 8.92981 47.3016 9.0922C47.2072 9.13627 47.2335 9.07446 47.2195 9.04527C47.2111 9.02669 47.1919 9.01093 47.1781 8.9951C47.012 9.15237 46.9932 8.97899 46.8977 8.94294C46.824 8.91459 46.7205 8.88933 46.6362 8.87982C46.3046 8.84976 45.9705 8.83842 45.6392 8.82705C45.5251 8.82331 45.4085 8.83563 45.2944 8.82922C45.1885 8.8227 45.0976 8.92549 44.9689 8.84448C44.9388 8.82621 44.7906 8.90843 44.6712 8.91278C44.5736 8.91683 44.4683 8.96105 44.3793 9.00237C44.285 9.04911 44.1983 9.06101 44.1133 9.00344C44.0201 8.94063 43.9583 8.98424 43.9047 9.03575C43.8404 9.0981 43.7864 9.11489 43.7201 9.03835C43.6788 8.99351 43.6378 8.97272 43.5625 9.0272C43.5249 9.05712 43.427 9.0398 43.3675 9.05666C43.2567 9.09027 43.1571 9.15579 43.0433 9.16807C42.9457 9.18013 42.8365 9.13625 42.7358 9.11629C42.7321 9.04689 42.758 8.95837 42.593 9.00076C42.3604 9.06013 42.3305 9.05788 42.0435 8.92032C42.0434 8.91498 42.0436 8.92567 42.0437 8.93368C42.0653 8.92803 42.0897 8.92502 42.1086 8.91407C42.114 8.91132 42.1001 8.89014 42.0945 8.87686C42.0784 8.88778 42.0595 8.89606 42.0435 8.92032C41.9011 9.02117 41.7325 9.00484 41.5669 9.00182C41.5621 8.85229 41.3726 8.89502 41.2689 8.85641C41.1407 8.81013 40.9857 8.7936 40.8628 8.7419C40.8027 8.71603 40.8025 8.50499 40.7352 8.74102C40.7353 8.74369 40.6782 8.74182 40.6782 8.74182C40.6714 8.64575 40.6307 8.64098 40.5173 8.68799C40.4822 8.70184 40.3833 8.61507 40.3127 8.61339C40.2068 8.61221 40.0359 8.62262 40.0012 8.66852C39.8654 8.85209 39.6407 8.70298 39.4841 8.76662C39.1835 8.62392 38.8422 8.67947 38.5162 8.66001C38.3341 8.64921 38.1657 8.64089 37.9815 8.66752C37.8595 8.68259 37.8439 8.72823 37.7877 8.78512C37.7422 8.83117 37.6118 8.82499 37.5363 8.86345C37.4555 8.90466 37.383 8.96178 37.3268 9.02134C37.3001 9.0511 37.3062 9.0991 37.3068 9.14183C37.3104 9.20857 37.3113 9.27267 37.1781 9.25584C37.1811 9.27717 37.1789 9.3146 37.1871 9.31716C37.4508 9.34551 37.1855 9.39732 37.1969 9.43456C37.0829 9.43883 36.9717 9.44841 36.8577 9.44734C36.836 9.44765 36.8001 9.40808 36.7944 9.38412C36.768 9.24557 36.7625 9.24298 36.533 9.32635C36.5328 9.31566 36.5353 9.29693 36.5325 9.29697C36.4103 9.288 36.2768 9.25515 36.1658 9.27541C36.0385 9.29857 35.96 9.12336 35.8315 9.24805C35.8234 9.25618 35.7581 9.24641 35.7443 9.23057C35.6449 9.10909 35.5699 9.18227 35.5003 9.24736C35.4654 9.27724 35.4552 9.32814 35.412 9.34477C35.3042 9.39437 35.2384 9.54223 35.0495 9.43268C35.0057 9.40658 34.9163 9.4212 34.8483 9.41147C34.6825 9.39243 34.6108 9.31863 34.6363 9.19806C34.6592 9.09088 34.6291 9.0726 34.5782 9.11873C34.42 9.2572 34.3009 9.09325 34.1626 9.10587C34.0488 9.11549 33.9861 9.10034 33.9142 9.00785C33.8423 8.91536 33.6651 8.85908 33.5232 8.80498C33.4795 8.78956 33.3987 8.83344 33.3336 8.8397C33.2849 8.84572 33.2165 8.81463 33.1842 8.83111C33.0764 8.88605 32.9442 8.749 32.8507 8.86251C32.8128 8.67337 32.6632 8.84645 32.5678 8.82107C32.4724 8.79303 32.3642 8.81592 32.2548 8.76403C32.0717 8.67577 32.0203 8.68985 31.8206 8.7728C31.7154 8.81702 31.6239 8.87975 31.5215 8.93195C31.4892 8.94843 31.4161 8.96281 31.4106 8.95755C31.2974 8.82557 31.1828 8.97411 31.0929 8.95667C30.9296 8.92424 30.8206 9.08873 30.6292 8.9899C30.5253 8.93526 30.3249 8.97548 30.1702 8.97765C30.078 8.97895 29.9554 8.95396 29.9681 9.07934C29.9682 9.08735 29.8706 9.0994 29.8192 9.10814C29.8056 9.111 29.7785 9.11139 29.7784 9.10871C29.7441 8.98097 29.5409 9.01321 29.4693 8.93674C29.4252 8.88928 29.4469 8.88897 29.352 8.89832C29.1785 8.91412 29.0267 8.92961 28.8619 8.98802C28.7458 9.02973 28.5798 9.00534 28.4358 8.99935C28.4005 8.99718 28.3647 8.95761 28.3398 8.92857C28.2847 8.86791 28.2101 8.77278 28.1239 8.82475C27.914 8.95326 28.0069 8.80235 27.9927 8.75981C27.9785 8.7146 27.9752 8.67457 27.9026 8.72635C27.7198 8.85447 27.5973 9.01915 27.4008 9.14213C27.3497 9.17223 27.3287 9.22328 27.2577 9.19757C27.2359 9.18986 27.2405 9.12835 27.2508 9.09348C27.2585 9.05597 27.2987 9.02068 27.3036 8.98321C27.3156 8.87351 27.2615 8.88229 27.181 8.95287C27.0586 8.74355 26.8079 8.86462 26.6148 8.84062C26.5604 8.83337 26.5008 8.84222 26.4248 8.84329C26.4194 8.84336 26.4302 8.84321 26.4438 8.84302C26.4354 8.82711 26.4297 8.80849 26.416 8.79533C26.4105 8.79273 26.3807 8.80116 26.3645 8.80673C26.3783 8.8199 26.392 8.83039 26.4248 8.84329C26.4439 8.8537 26.4469 8.87236 26.4442 8.8724C26.1895 8.90804 25.9377 8.95432 25.6828 8.97393C25.5825 8.98335 25.4707 8.95019 25.3779 8.9141C25.3288 8.89609 25.3221 8.80803 25.2786 8.80062C25.2296 8.79063 25.1519 8.86385 25.1029 8.85385C24.9504 8.82394 24.8065 9.01296 24.6551 8.86549C24.5225 8.89406 24.391 9.00544 24.2453 8.87659C24.2399 8.87399 24.1646 8.92314 24.1159 8.93451C24.0428 8.95156 23.9733 9.03001 23.8878 8.93237C23.8161 8.85323 23.713 8.85468 23.5943 8.90978C23.5187 8.9429 23.3562 8.96922 23.3232 8.9403C23.2106 8.84304 23.0872 8.94896 23.0162 8.92057C22.8742 8.8638 22.785 8.89177 22.6828 8.95465C22.6074 9.00112 22.5427 8.8364 22.4438 8.94732C22.4117 8.9825 22.2819 9.01638 22.2491 9.00081C22.0959 8.92015 22.106 9.05625 22.033 9.07865C21.9086 9.11245 21.6937 9.08074 21.527 9.00027C21.4859 8.97948 21.4207 8.96971 21.3719 8.97841C21.3096 8.9873 21.2533 9.03618 21.1936 9.03702C21.0823 9.03858 20.968 9.01881 20.8565 9.00702C20.8881 9.12947 20.717 9.12653 20.6441 9.15427C20.5388 9.19315 20.4279 9.21875 20.3228 9.27365C20.1125 9.37812 19.8966 9.2743 19.7191 9.20199C19.5962 9.15029 19.5303 9.09779 19.4068 9.19303C19.2859 9.28288 19.1381 9.19947 19.0077 9.19329C18.9289 9.18906 18.8788 9.1016 18.7577 9.17543C18.7066 9.20554 18.6051 9.13483 18.604 9.05204C18.6035 9.02266 18.5678 8.99377 18.5484 8.96199C18.5379 8.99152 18.5386 9.0396 18.517 9.04524C18.3655 9.08477 18.2116 9.14036 18.0569 9.14254C17.9184 9.14448 17.7792 9.08767 17.6429 9.04684C17.5938 9.0315 17.5522 8.96797 17.5169 8.97114C17.2757 8.99857 17.1825 8.93043 17.218 8.75629C17.2206 8.74823 17.1715 8.72755 17.1661 8.7303C16.9505 8.84553 16.6967 8.75025 16.4722 8.80684C16.4343 8.81538 16.4076 8.85049 16.3724 8.85633C16.3426 8.85942 16.288 8.83881 16.2769 8.82027C16.2546 8.78051 16.2888 8.69989 16.1704 8.77635C16.1435 8.79276 16.0726 8.76704 16.021 8.76776C16.002 8.76803 15.9753 8.79779 15.9616 8.79264C15.8472 8.76219 15.8472 8.76219 15.8428 8.83972C15.8407 8.8825 15.8659 8.93824 15.8364 8.9627C15.7855 9.00616 15.6912 9.06358 15.6395 9.05362C15.5524 9.03348 15.4942 8.95415 15.3923 9.04374C15.3522 9.08171 15.28 8.97052 15.2024 9.04908C15.1837 9.06804 15.0197 8.99021 14.9576 9.01245C14.8387 9.05152 14.7449 9.13833 14.7072 8.96788C14.7043 8.95724 14.6607 8.94717 14.6363 8.94751C14.5413 8.94884 14.4591 9.08624 14.3569 8.96479C14.2962 8.89352 14.226 8.91855 14.142 8.93308C14.1204 8.93606 14.0653 8.8834 14.0513 8.84887C14.0428 8.82762 14.1619 8.8019 14.0664 8.76585C14.0418 8.75551 13.9769 8.77245 13.9582 8.79141C13.8912 8.8538 13.8433 8.9266 13.7736 8.98902C13.7066 9.0514 13.6412 9.03095 13.6021 8.95136C13.5853 8.91686 13.6355 8.81732 13.541 8.85872C13.4439 8.90282 13.3995 8.83132 13.3861 8.84219C13.3028 8.90748 13.2455 8.88157 13.1393 8.86169C12.9325 8.82452 12.6987 8.8011 12.4993 8.91075C12.4616 8.93266 12.4294 8.95715 12.3972 8.98165C12.3515 9.01969 12.3114 9.06299 12.2712 9.10096C12.2155 8.99489 12.0022 9.08337 11.9877 9.01679C11.9559 8.87832 11.8398 8.92269 11.7394 8.92143C11.6253 8.92037 11.5085 8.91399 11.3947 8.92895C11.2538 8.94696 11.0434 8.8484 10.9864 9.04422C10.9839 9.05761 10.8834 9.05902 10.8292 9.05978C10.6148 9.06547 10.3976 9.06318 10.1832 9.07153C10.0204 9.07649 9.83526 9.03635 9.72046 9.17421C9.71243 9.18233 9.66071 9.17237 9.6335 9.16741C9.54363 9.14731 9.45908 9.11911 9.36932 9.10701C9.29318 9.0974 9.18442 9.08557 9.14137 9.11289C9.02846 9.19194 8.99089 9.02952 8.8885 9.08438C8.85348 9.10358 8.74755 9.09972 8.72825 9.07862C8.58208 8.91505 8.3554 9.01173 8.23104 9.04821C8.09046 9.09026 7.96282 9.08671 7.81102 9.1022C7.80559 9.10227 7.81645 9.10212 7.83002 9.10193C7.82165 9.08602 7.81596 9.0674 7.8022 9.05423C7.79673 9.05164 7.76699 9.06007 7.75078 9.06564C7.76454 9.07881 7.77826 9.0893 7.81102 9.1022C7.66283 9.18175 7.6655 9.17904 7.56942 9.10292C7.53923 9.0793 7.46542 9.04294 7.45735 9.0484C7.40356 9.08388 7.37453 9.14306 7.31515 9.16794C7.28005 9.18179 7.20059 9.12947 7.15457 9.13814C6.93539 9.1893 6.73767 9.22147 6.53231 9.09612C6.48029 9.0648 6.31804 9.10982 6.22078 9.14324C6.15862 9.16282 6.11594 9.21685 6.04198 9.1698C5.89682 9.07834 5.8512 9.11638 5.84754 9.24199C5.84792 9.2687 5.79126 9.29354 5.75906 9.3207C5.71507 9.28125 5.679 9.22566 5.62174 9.20776C5.57813 9.19502 5.50808 9.2334 5.4486 9.25027C5.43251 9.07151 5.18676 9.16312 5.07432 9.08188C4.97556 9.00847 4.79902 9.00294 4.70268 8.90812C4.68892 8.89496 4.63723 8.88767 4.62917 8.89313C4.44656 9.03461 4.34659 8.87573 4.21843 8.83478C4.18571 8.82456 4.1257 8.80403 4.12555 8.79335C4.15036 8.62737 3.95645 8.54461 3.85181 8.43922C3.76369 8.34963 3.78966 8.26645 3.76671 8.17862C3.73528 8.06686 3.83258 8.03611 3.9376 7.97586C4.06152 7.90734 4.23692 7.83274 4.194 7.67573C4.39685 7.62212 4.41217 7.36011 4.73349 7.43039C4.85332 7.45809 4.99929 7.4133 5.1169 7.47576C5.23244 7.39132 5.32287 7.4515 5.44535 7.47382C5.56782 7.49614 5.73799 7.43498 5.86782 7.40109C5.97601 7.37286 6.07636 7.36611 6.18199 7.34859C6.2849 7.33112 6.38484 7.29499 6.49058 7.28549C6.6126 7.27576 6.72392 7.27686 6.84164 7.34734C6.98126 7.43086 7.17178 7.46558 7.34089 7.52198C7.59482 7.43293 7.82122 7.50989 8.0529 7.57609C8.35501 7.43827 8.78334 7.58987 9.0403 7.3298C9.09383 7.27562 9.22932 7.25768 9.33227 7.24288C9.45146 7.22518 9.5794 7.25009 9.68696 7.17645C9.71384 7.15738 9.82545 7.17985 9.87197 7.20591C10.0717 7.31797 10.1587 7.32477 10.4351 7.2915C10.6302 7.26738 10.8445 7.25636 11.0323 7.29112C11.1221 7.30588 11.1659 7.32931 11.2194 7.26979C11.3049 7.17509 11.4081 7.17631 11.5469 7.20374C11.6803 7.22858 11.8639 7.15922 11.8988 7.32703C11.9463 7.22752 12.0455 7.33298 12.1129 7.2973C12.2261 7.23694 12.3455 7.24061 12.4603 7.28975C12.493 7.30265 12.5044 7.34256 12.5238 7.369C12.5343 7.33947 12.5309 7.2941 12.5552 7.28574C12.7227 7.22729 12.89 7.15815 13.0688 7.12626C13.1771 7.10604 13.2879 7.07242 13.4295 7.10516C13.6038 7.14545 13.8292 7.14763 13.9627 6.99081C13.968 6.98272 14.0878 7.00508 14.0907 7.02107C14.1234 7.22096 14.2833 7.20536 14.4408 7.20315Z" fill="#C05251"/>
<path id="Vector_2" d="M131.566 7.20026C131.596 7.19985 131.623 7.19946 133.052 7.43584C133.128 7.42943 133.245 7.43848 133.258 7.41692C133.298 7.33889 133.47 7.4086 133.471 7.29372C133.469 7.19489 133.417 7.13953 133.294 7.11187C133.204 7.09176 133.117 7.05292 133.028 7.05684C132.903 7.06127 132.853 7.02456 132.836 6.94467C132.814 6.95833 132.787 6.96939 132.771 6.98565C132.731 7.02628 132.702 7.09614 132.654 7.10484C132.429 7.14273 132.196 7.16471 131.968 7.19195C131.891 7.10488 131.816 7.19141 131.74 7.19248C131.667 7.19351 131.634 7.20732 131.657 7.25777C131.668 7.28165 131.696 7.31332 131.723 7.31828C131.867 7.34297 132.019 7.34617 132.158 7.38162C132.259 7.40692 132.332 7.40055 132.435 7.38307C132.578 7.35701 132.767 7.24484 132.897 7.41932C132.911 7.4405 133 7.43123 131.653 7.19637C131.645 7.17779 131.634 7.16192 131.625 7.14334C131.607 7.1623 131.588 7.17859 131.48 7.26559C131.507 7.25452 131.537 7.24075 131.569 7.22694C131.556 7.21644 131.539 7.19798 131.528 7.2008C131.485 7.20942 131.445 7.22602 131.404 7.23727C131.423 7.24769 131.445 7.2554 131.566 7.20026Z" fill="#C05251"/>
<path id="Vector_3" d="M73.4064 7.7293C73.3976 7.68393 73.3974 7.67056 73.3919 7.66796C73.3755 7.66016 73.3427 7.65259 73.3347 7.65806C73.2243 7.73721 73.114 7.82171 73.0091 7.90346C72.9983 7.91164 72.9933 7.94382 72.9988 7.94374C73.0206 7.95146 73.0616 7.96426 73.0724 7.95609C73.1909 7.8795 73.3094 7.79756 73.4064 7.7293Z" fill="#C05251"/>
<path id="Vector_4" d="M110.023 7.25438C110.045 7.2835 110.059 7.31007 110.064 7.30999C110.138 7.29826 110.239 7.34767 110.276 7.26421C110.287 7.24265 110.251 7.21104 110.239 7.18444C110.169 7.20951 110.099 7.23191 110.023 7.25438Z" fill="#C05251"/>
<path id="Vector_5" d="M44.3844 8.96689C44.422 8.91518 44.4626 8.88228 44.4515 8.87166C44.4292 8.84503 44.3852 8.8268 44.3493 8.80575C44.3277 8.8276 44.2815 8.8525 44.2872 8.86858C44.2986 8.89805 44.3372 8.92175 44.3844 8.96689Z" fill="#C05251"/>
<path id="Vector_6" d="M26.805 6.84815C26.7417 6.81413 26.7086 6.78774 26.6703 6.78022C26.6484 6.77784 26.6161 6.81052 26.5863 6.82706C26.6167 6.85349 26.639 6.8854 26.6774 6.90098C26.6939 6.90612 26.7372 6.87865 26.805 6.84815Z" fill="#C05251"/>
<path id="Vector_7" d="M94.7616 7.87059C94.8001 7.88082 94.8414 7.8991 94.8825 7.90391C94.9017 7.90633 94.926 7.88444 94.9478 7.87336C94.8981 7.84712 94.8485 7.81818 94.8016 7.7919C94.7909 7.81091 94.7829 7.82719 94.7616 7.87059Z" fill="#C05251"/>
<path id="Vector_8" d="M86.6875 7.92266C86.665 7.87987 86.6565 7.86383 86.648 7.84509C86.5992 7.87272 86.5503 7.90304 86.5014 7.93066C86.5235 7.94113 86.5484 7.96233 86.5675 7.95936C86.6085 7.95071 86.6493 7.93397 86.6875 7.92266Z" fill="#C05251"/>
<path id="Vector_9" d="M34.8429 6.51332C34.8681 6.55337 34.8765 6.57211 34.8877 6.58811C34.9338 6.55783 34.9799 6.52755 35.0288 6.49723C35.0067 6.48677 34.9818 6.46826 34.9627 6.47122C34.919 6.47992 34.881 6.49931 34.8429 6.51332Z" fill="#C05251"/>
<path id="Vector_10" d="M92.5203 8.13399C92.5534 8.15238 92.5866 8.17616 92.6251 8.18909C92.6416 8.19424 92.6715 8.17766 92.696 8.16924C92.6572 8.13476 92.6183 8.10029 92.5795 8.06312C92.5661 8.08216 92.5526 8.09852 92.5203 8.13399Z" fill="#C05251"/>
<path id="Vector_11" d="M35.07 9.17638C35.1166 9.18111 35.155 9.18865 35.1933 9.18542C35.2042 9.18527 35.2148 9.15819 35.2255 9.14458C35.1871 9.13704 35.1487 9.12681 35.1104 9.12735C35.1022 9.12747 35.0888 9.15189 35.07 9.17638Z" fill="#C05251"/>
<path id="Vector_12" d="M27.8143 6.98334C27.8005 6.97813 27.7701 6.97044 27.7398 6.96005C27.729 6.97913 27.7073 6.99837 27.713 7.01181C27.7216 7.03332 27.7493 7.04916 27.7688 7.06781C27.7768 7.05148 27.7875 7.03239 27.8143 6.98334Z" fill="#C05251"/>
<path id="Vector_13" d="M150.354 7.56226C150.368 7.58366 150.388 7.60767 150.405 7.63442C150.418 7.61804 150.448 7.60143 150.445 7.58528C150.442 7.55833 150.42 7.53166 150.403 7.50761C150.389 7.52129 150.373 7.53771 150.354 7.56226Z" fill="#C05251"/>
<path id="Vector_14" d="M24.6512 7.00973C24.6565 6.99889 24.6726 6.97712 24.6777 6.95282C24.6777 6.94744 24.6309 6.92925 24.6091 6.93494C24.5818 6.94071 24.5602 6.96255 24.5331 6.97639C24.5577 6.98143 24.5825 6.98916 24.6512 7.00973Z" fill="#C05251"/>
<path id="Vector_15" d="M144.585 7.12882C144.615 7.12569 144.651 7.12518 144.651 7.12247C144.656 7.09526 144.653 7.06545 144.65 7.03836C144.65 7.03836 144.594 7.03642 144.595 7.03914C144.587 7.06638 144.587 7.09623 144.585 7.12882Z" fill="#C05251"/>
<path id="Vector_16" d="M20.5931 7.06218C20.6147 7.03759 20.6419 7.01832 20.6417 7.00482C20.6386 6.97788 20.6163 6.95121 20.5995 6.92716C20.586 6.94354 20.5588 6.96011 20.559 6.9763C20.5594 7.00328 20.579 7.02999 20.5931 7.06218Z" fill="#C05251"/>
<path id="Vector_17" d="M19.1978 9.02613C19.2145 9.04748 19.2313 9.07154 19.2482 9.09829C19.2616 9.08191 19.2916 9.06529 19.2886 9.04914C19.2855 9.0222 19.2632 8.99553 19.2464 8.97147C19.2329 8.98516 19.2194 9.00154 19.1978 9.02613Z" fill="#C05251"/>
<path id="Vector_18" d="M18.7943 9.00971C18.7805 9.00449 18.7501 8.99681 18.7197 8.98642C18.709 9.0055 18.6873 9.02473 18.693 9.03817C18.7015 9.05969 18.7292 9.07552 18.7487 9.09418C18.7567 9.07514 18.7647 9.0588 18.7943 9.00971Z" fill="#C05251"/>
<path id="Vector_19" d="M114.352 7.85929C114.319 7.84359 114.294 7.82239 114.275 7.82535C114.237 7.82858 114.204 7.8452 114.166 7.85652C114.188 7.86698 114.21 7.88553 114.232 7.88522C114.271 7.88468 114.306 7.87071 114.352 7.85929Z" fill="#C05251"/>
<path id="Vector_20" d="M111.588 7.10078C111.62 7.08675 111.653 7.07543 111.653 7.0673C111.65 7.04021 111.636 7.01057 111.624 6.9836C111.605 6.99201 111.57 7.00065 111.57 7.00879C111.57 7.03862 111.582 7.06559 111.588 7.10078Z" fill="#C05251"/>
<path id="Vector_21" d="M97.5957 7.42279C97.6007 7.38746 97.6114 7.36018 97.6082 7.33038C97.6081 7.32224 97.5721 7.31461 97.5527 7.30674C97.5421 7.33402 97.5287 7.36405 97.5263 7.39121C97.5292 7.40202 97.5624 7.4097 97.5957 7.42279Z" fill="#C05251"/>
<path id="Vector_22" d="M95.2126 8.07775C95.2592 8.08248 95.2976 8.09002 95.3358 8.08679C95.3468 8.08663 95.3573 8.05956 95.3681 8.04595C95.3297 8.03841 95.2912 8.02818 95.2529 8.02872C95.2447 8.02884 95.2314 8.05595 95.2126 8.07775Z" fill="#C05251"/>
<path id="Vector_23" d="M93.7256 8.04633C93.7306 8.01099 93.7412 7.98371 93.7381 7.95391C93.738 7.94578 93.702 7.93814 93.6826 7.93028C93.672 7.95756 93.6586 7.98759 93.6562 8.01475C93.6591 8.02556 93.6951 8.03319 93.7256 8.04633Z" fill="#C05251"/>
<path id="Vector_24" d="M93.1435 8.04473C93.1901 8.04946 93.2285 8.057 93.2667 8.05377C93.2777 8.05362 93.2883 8.02655 93.299 8.01293C93.2606 8.0054 93.2222 7.99517 93.1839 7.9957C93.1756 7.99313 93.1623 8.02024 93.1435 8.04473Z" fill="#C05251"/>
<path id="Vector_25" d="M88.7475 7.73068C88.7252 7.7067 88.7112 7.69071 88.6973 7.67471C88.684 7.70189 88.6624 7.72648 88.6573 7.75354C88.6547 7.76707 88.6852 7.78553 88.6991 7.80153C88.7152 7.77971 88.7313 7.7525 88.7475 7.73068Z" fill="#C05251"/>
<path id="Vector_26" d="M85.7337 8.14494C85.764 8.1418 85.7998 8.14129 85.7998 8.13858C85.8049 8.11137 85.8018 8.08157 85.7986 8.05448C85.7986 8.05448 85.7434 8.05254 85.7435 8.05525C85.7383 8.08246 85.736 8.11234 85.7337 8.14494Z" fill="#C05251"/>
<path id="Vector_27" d="M84.3658 7.89594C84.352 7.89073 84.3217 7.88304 84.2913 7.87265C84.2806 7.89173 84.2588 7.91096 84.2645 7.9244C84.2731 7.94592 84.3008 7.96175 84.3203 7.98041C84.3283 7.96407 84.3391 7.9477 84.3658 7.89594Z" fill="#C05251"/>
<path id="Vector_28" d="M58.9143 8.59955C58.9193 8.56421 58.93 8.53693 58.9268 8.50714C58.9267 8.499 58.8907 8.49137 58.8713 8.4835C58.8607 8.51078 58.8473 8.54081 58.8449 8.56797C58.8478 8.57607 58.881 8.58645 58.9143 8.59955Z" fill="#C05251"/>
<path id="Vector_29" d="M148.393 7.70177C148.405 7.70978 148.416 7.7178 148.424 7.72313C148.435 7.70936 148.446 7.69559 148.451 7.67917C148.454 7.67369 148.434 7.66579 148.423 7.65778C148.412 7.67427 148.402 7.68804 148.393 7.70177Z" fill="#C05251"/>
<path id="Vector_30" d="M147.154 7.15038C147.143 7.13692 147.135 7.12342 147.123 7.10996C147.112 7.11828 147.093 7.12672 147.096 7.13213C147.102 7.14839 147.113 7.16185 147.124 7.17531C147.132 7.1643 147.143 7.1587 147.154 7.15038Z" fill="#C05251"/>
<path id="Vector_31" d="M142.87 7.1466C142.881 7.15461 142.892 7.16262 142.9 7.16795C142.911 7.15418 142.922 7.14041 142.928 7.12399C142.93 7.11851 142.911 7.11061 142.9 7.1026C142.889 7.11909 142.878 7.13286 142.87 7.1466Z" fill="#C05251"/>
<path id="Vector_32" d="M99.5267 7.94494C99.5379 7.95295 99.5491 7.96096 99.5575 7.96629C99.5684 7.95252 99.5792 7.93875 99.5845 7.92233C99.5872 7.91685 99.5677 7.90895 99.5566 7.90094C99.5485 7.91739 99.5376 7.93116 99.5267 7.94494Z" fill="#C05251"/>
<path id="Vector_33" d="M98.4177 7.42292C98.4069 7.43112 98.3961 7.43933 98.388 7.44481C98.4072 7.45259 98.4264 7.46038 98.4455 7.46279C98.4537 7.46268 98.4644 7.44911 98.4726 7.44362C98.4561 7.4358 98.4369 7.42802 98.4177 7.42292Z" fill="#C05251"/>
<path id="Vector_34" d="M97.797 7.33654C97.8082 7.34455 97.8194 7.35256 97.8277 7.35789C97.8386 7.34412 97.8495 7.33035 97.8548 7.31394C97.8575 7.30845 97.838 7.30055 97.8268 7.29254C97.816 7.30903 97.8051 7.32281 97.797 7.33654Z" fill="#C05251"/>
<path id="Vector_35" d="M111.647 7.20604C111.636 7.19258 111.627 7.17909 111.616 7.16563C111.605 7.17395 111.589 7.18235 111.589 7.1878C111.594 7.20406 111.606 7.21752 111.617 7.23098C111.625 7.22269 111.636 7.21437 111.647 7.20604Z" fill="#C05251"/>
<path id="Vector_36" d="M95.2527 8.21633C95.2637 8.208 95.2829 8.19956 95.2801 8.19415C95.2743 8.17789 95.2631 8.16443 95.2518 8.15097C95.2409 8.1593 95.2216 8.16774 95.2245 8.17315C95.2302 8.18941 95.2442 8.20283 95.2527 8.21633Z" fill="#C05251"/>
<path id="Vector_37" d="M108.941 7.07619C108.952 7.06787 108.968 7.05946 108.968 7.05402C108.962 7.03776 108.951 7.0243 108.94 7.01084C108.929 7.01916 108.91 7.0276 108.912 7.03301C108.918 7.04927 108.932 7.06269 108.941 7.07619Z" fill="#C05251"/>
<path id="Vector_38" d="M94.2265 7.84271C94.2373 7.83451 94.2481 7.8263 94.2562 7.82082C94.237 7.81304 94.2178 7.80525 94.1987 7.80284C94.1905 7.80295 94.1798 7.81653 94.1717 7.82201C94.1881 7.82715 94.2073 7.83493 94.2265 7.84271Z" fill="#C05251"/>
<path id="Vector_39" d="M92.9261 8.18801C92.937 8.17968 92.9563 8.17124 92.9534 8.16583C92.9477 8.14957 92.9364 8.13611 92.9252 8.12265C92.9142 8.13098 92.8949 8.13942 92.8978 8.14483C92.9035 8.15836 92.9175 8.17179 92.9261 8.18801Z" fill="#C05251"/>
<path id="Vector_40" d="M92.7157 7.76865C92.7269 7.78211 92.7354 7.79561 92.7467 7.80907C92.7576 7.80074 92.7769 7.7923 92.7741 7.78689C92.7683 7.77063 92.757 7.75717 92.7458 7.74371C92.7376 7.75472 92.7294 7.76028 92.7157 7.76865Z" fill="#C05251"/>
<path id="Vector_41" d="M92.5021 7.80316C92.5129 7.79496 92.5237 7.78675 92.5318 7.78127C92.5126 7.77349 92.4934 7.7657 92.4743 7.76329C92.4661 7.7634 92.4554 7.77698 92.4473 7.78246C92.4638 7.79028 92.483 7.79806 92.5021 7.80316Z" fill="#C05251"/>
<path id="Vector_42" d="M92.3778 8.23546C92.389 8.24348 92.4002 8.25149 92.4086 8.25682C92.4194 8.24305 92.4303 8.22928 92.4356 8.21286C92.4383 8.20738 92.4188 8.19948 92.4076 8.19147C92.3996 8.20792 92.3887 8.22169 92.3778 8.23546Z" fill="#C05251"/>
<path id="Vector_43" d="M90.9833 7.11681C90.9945 7.12482 91.0056 7.13284 91.014 7.13817C91.0249 7.1244 91.0358 7.11063 91.0411 7.09421C91.0438 7.08872 91.0243 7.08083 91.0131 7.07281C91.005 7.08927 90.9942 7.10304 90.9833 7.11681Z" fill="#C05251"/>
<path id="Vector_44" d="M89.8719 7.61826C89.8832 7.63172 89.8917 7.64522 89.9029 7.65867C89.9139 7.65035 89.9331 7.64191 89.9303 7.6365C89.9245 7.62024 89.9133 7.60678 89.902 7.59332C89.8911 7.60437 89.8829 7.60993 89.8719 7.61826Z" fill="#C05251"/>
<path id="Vector_45" d="M89.4025 8.03607C89.4133 8.02787 89.4241 8.01966 89.4322 8.01418C89.413 8.0064 89.3938 7.99861 89.3747 7.9962C89.3665 7.99631 89.3558 8.00989 89.3477 8.01537C89.3669 8.02315 89.3834 8.03097 89.4025 8.03607Z" fill="#C05251"/>
<path id="Vector_46" d="M88.5169 8.1769C88.5359 8.16858 88.5549 8.16026 88.5711 8.15467C88.5601 8.14677 88.549 8.1335 88.5436 8.13626C88.5246 8.13922 88.5056 8.15022 88.4866 8.15585C88.4976 8.16107 88.5058 8.16632 88.5169 8.1769Z" fill="#C05251"/>
<path id="Vector_47" d="M88.0409 7.85252C88.0296 7.83907 88.0211 7.82557 88.0099 7.81211C87.9989 7.82043 87.9797 7.82887 87.9825 7.83428C87.9883 7.85054 87.9995 7.864 88.0108 7.87746C88.019 7.86917 88.0299 7.86085 88.0409 7.85252Z" fill="#C05251"/>
<path id="Vector_48" d="M87.0064 7.84811C86.9953 7.8401 86.9841 7.83209 86.9757 7.82676C86.9648 7.84053 86.9539 7.8543 86.9486 7.87071C86.9459 7.8762 86.9654 7.88409 86.9766 7.89211C86.9847 7.87838 86.9956 7.86188 87.0064 7.84811Z" fill="#C05251"/>
<path id="Vector_49" d="M86.6389 7.63373C86.6497 7.62552 86.6604 7.61732 86.6686 7.61184C86.6493 7.60405 86.6301 7.59627 86.611 7.59385C86.6028 7.59397 86.5921 7.60754 86.584 7.61303C86.6032 7.61812 86.6224 7.62591 86.6389 7.63373Z" fill="#C05251"/>
<path id="Vector_50" d="M85.7945 7.56883C85.7833 7.55537 85.7748 7.54188 85.7635 7.52842C85.7526 7.53674 85.7333 7.54518 85.7362 7.55059C85.7419 7.56685 85.7532 7.58031 85.7645 7.59377C85.7754 7.58544 85.7836 7.57716 85.7945 7.56883Z" fill="#C05251"/>
<path id="Vector_51" d="M85.7382 7.88537C85.7493 7.89338 85.7605 7.90139 85.7689 7.90672C85.7798 7.89295 85.7907 7.87918 85.796 7.86276C85.7987 7.85728 85.7792 7.84938 85.768 7.84137C85.7572 7.85786 85.7463 7.87163 85.7382 7.88537Z" fill="#C05251"/>
<path id="Vector_52" d="M85.1105 7.95799C85.0992 7.94453 85.0907 7.93104 85.0795 7.91758C85.0685 7.9259 85.0492 7.93434 85.0521 7.93975C85.0579 7.95601 85.0691 7.96947 85.0804 7.98293C85.0913 7.9746 85.0995 7.96632 85.1105 7.95799Z" fill="#C05251"/>
<path id="Vector_53" d="M118.075 7.84138C118.064 7.84958 118.053 7.85779 118.045 7.86327C118.064 7.87105 118.084 7.87883 118.103 7.88125C118.111 7.88114 118.122 7.86756 118.13 7.86208C118.113 7.85694 118.094 7.84916 118.075 7.84138Z" fill="#C05251"/>
<path id="Vector_54" d="M81.4803 7.16696C81.4691 7.15895 81.4579 7.15093 81.4496 7.1456C81.4387 7.15937 81.4278 7.17314 81.4225 7.18956C81.4198 7.19505 81.4393 7.20294 81.4505 7.21096C81.4613 7.19446 81.4694 7.18073 81.4803 7.16696Z" fill="#C05251"/>
<path id="Vector_55" d="M113.441 7.44769C113.452 7.43949 113.463 7.43128 113.471 7.4258C113.452 7.41802 113.432 7.41024 113.413 7.40782C113.405 7.40793 113.394 7.42151 113.386 7.42699C113.403 7.43213 113.422 7.43991 113.441 7.44769Z" fill="#C05251"/>
<path id="Vector_56" d="M120.125 7.89023C120.137 7.90369 120.145 7.91719 120.156 7.93065C120.167 7.92232 120.187 7.91388 120.184 7.90847C120.178 7.89221 120.167 7.87875 120.155 7.86529C120.147 7.87358 120.139 7.88187 120.125 7.89023Z" fill="#C05251"/>
<path id="Vector_57" d="M113.597 7.13869C113.608 7.13037 113.625 7.12196 113.625 7.11652C113.619 7.10026 113.608 7.0868 113.596 7.07334C113.585 7.08166 113.566 7.0901 113.569 7.09551C113.572 7.10909 113.586 7.12251 113.597 7.13869Z" fill="#C05251"/>
<path id="Vector_58" d="M76.533 7.90151C76.552 7.89319 76.571 7.88487 76.5873 7.87928C76.5762 7.87138 76.5651 7.85811 76.5597 7.86087C76.5407 7.86382 76.5217 7.87483 76.5027 7.88046C76.5137 7.88568 76.522 7.89362 76.533 7.90151Z" fill="#C05251"/>
<path id="Vector_59" d="M73.7903 8.01369C73.8013 8.00537 73.8205 7.99692 73.8177 7.99152C73.8119 7.97526 73.8007 7.9618 73.7894 7.94834C73.7785 7.95666 73.7592 7.9651 73.762 7.97051C73.7678 7.98677 73.7818 8.00019 73.7903 8.01369Z" fill="#C05251"/>
<path id="Vector_60" d="M128.007 8.3257C128.018 8.31738 128.038 8.30894 128.035 8.30353C128.029 8.28727 128.018 8.27381 128.006 8.26035C127.996 8.26867 127.976 8.27712 127.979 8.28252C127.982 8.29882 127.996 8.31224 128.007 8.3257Z" fill="#C05251"/>
<path id="Vector_61" d="M58.6715 8.57215C58.6605 8.56425 58.6494 8.55098 58.6439 8.55374C58.6249 8.5567 58.606 8.5677 58.5869 8.57334C58.598 8.58123 58.6091 8.5945 58.6145 8.59174C58.6363 8.58875 58.6525 8.58047 58.6715 8.57215Z" fill="#C05251"/>
<path id="Vector_62" d="M58.514 8.7755C58.5252 8.78352 58.5364 8.79153 58.5448 8.79686C58.5557 8.78309 58.5665 8.76932 58.5718 8.7529C58.5745 8.74742 58.555 8.73952 58.5439 8.73151C58.5358 8.74796 58.5249 8.76173 58.514 8.7755Z" fill="#C05251"/>
<path id="Vector_63" d="M50.3695 8.72873C50.3505 8.73705 50.3315 8.74537 50.3152 8.75096C50.3263 8.75886 50.3374 8.77213 50.3428 8.76937C50.3618 8.76641 50.3808 8.75541 50.3998 8.74978C50.3915 8.74452 50.3833 8.73927 50.3695 8.72873Z" fill="#C05251"/>
<path id="Vector_64" d="M48.3946 7.07361C48.3863 7.06568 48.3725 7.05245 48.3671 7.05521C48.348 7.05816 48.3291 7.06916 48.3101 7.0748C48.3211 7.0827 48.3322 7.09596 48.3376 7.0932C48.3594 7.09021 48.3756 7.07925 48.3946 7.07361Z" fill="#C05251"/>
<path id="Vector_65" d="M43.7814 8.96347C43.7926 8.97693 43.8011 8.99043 43.8124 9.00389C43.8233 8.99556 43.8426 8.98712 43.8397 8.98172C43.834 8.96546 43.8227 8.952 43.8114 8.93854C43.8005 8.94686 43.7923 8.95515 43.7814 8.96347Z" fill="#C05251"/>
<path id="Vector_66" d="M42.2272 8.87609C42.2384 8.8841 42.2495 8.89211 42.2579 8.89744C42.2688 8.88367 42.2797 8.8699 42.285 8.85349C42.2877 8.848 42.2682 8.84011 42.257 8.83209C42.2489 8.84855 42.2381 8.86232 42.2272 8.87609Z" fill="#C05251"/>
<path id="Vector_67" d="M40.6962 7.13861C40.707 7.13041 40.7178 7.1222 40.7259 7.11672C40.7067 7.10894 40.6875 7.10115 40.6684 7.09874C40.6602 7.09885 40.6495 7.11243 40.6414 7.11791C40.6579 7.12573 40.6771 7.13351 40.6962 7.13861Z" fill="#C05251"/>
<path id="Vector_68" d="M130.475 7.01821C130.494 7.00989 130.513 7.00157 130.53 6.99598C130.519 6.98808 130.508 6.97481 130.502 6.97757C130.483 6.98052 130.464 6.99153 130.445 6.99716C130.453 7.00242 130.462 7.00767 130.475 7.01821Z" fill="#C05251"/>
<path id="Vector_69" d="M38.742 6.95496C38.731 6.94706 38.7199 6.9338 38.7145 6.93656C38.6954 6.93951 38.6765 6.95051 38.6575 6.95615C38.6685 6.96405 38.6796 6.97731 38.685 6.97455C38.7041 6.9716 38.7231 6.96328 38.742 6.95496Z" fill="#C05251"/>
<path id="Vector_70" d="M36.7164 6.89211C36.7273 6.88378 36.7466 6.87534 36.7437 6.86994C36.738 6.85367 36.7267 6.84022 36.7154 6.82676C36.7045 6.83508 36.6852 6.84352 36.6881 6.84893C36.691 6.8625 36.7051 6.87593 36.7164 6.89211Z" fill="#C05251"/>
<path id="Vector_71" d="M35.3808 9.23871C35.3916 9.23051 35.4024 9.2223 35.4105 9.21682C35.3913 9.20903 35.3721 9.20125 35.353 9.19884C35.3448 9.19895 35.3341 9.21252 35.3259 9.21801C35.3451 9.22311 35.3616 9.23093 35.3808 9.23871Z" fill="#C05251"/>
<path id="Vector_72" d="M35.1285 6.57384C35.1397 6.58186 35.1509 6.58987 35.1593 6.5952C35.1702 6.58143 35.181 6.56766 35.1863 6.55124C35.189 6.54576 35.1696 6.53786 35.1584 6.52985C35.1475 6.54634 35.1367 6.56011 35.1285 6.57384Z" fill="#C05251"/>
<path id="Vector_73" d="M34.8911 6.85993C34.8803 6.86813 34.8695 6.87634 34.8614 6.88182C34.8806 6.88961 34.8998 6.89739 34.9189 6.89981C34.9271 6.89969 34.9378 6.88612 34.9459 6.88063C34.9295 6.8755 34.9103 6.86771 34.8911 6.85993Z" fill="#C05251"/>
<path id="Vector_74" d="M134.792 7.65249C134.811 7.64417 134.83 7.63585 134.847 7.63025C134.836 7.62235 134.824 7.60909 134.819 7.61185C134.8 7.6148 134.781 7.62581 134.762 7.63144C134.77 7.63669 134.781 7.64459 134.792 7.65249Z" fill="#C05251"/>
<path id="Vector_75" d="M115.393 7.05622C115.382 7.06442 115.371 7.07263 115.363 7.07811C115.382 7.0859 115.402 7.09368 115.421 7.09609C115.429 7.09598 115.44 7.08241 115.448 7.07692C115.428 7.07182 115.409 7.06404 115.393 7.05622Z" fill="#C05251"/>
<path id="Vector_76" d="M135.531 8.00829C135.52 7.99483 135.512 7.98133 135.5 7.96787C135.489 7.9762 135.473 7.9846 135.473 7.99005C135.479 8.00631 135.49 8.01977 135.501 8.03323C135.509 8.02494 135.52 8.01661 135.531 8.00829Z" fill="#C05251"/>
<path id="Vector_77" d="M28.672 7.08945C28.6832 7.10291 28.6917 7.11641 28.703 7.12987C28.7139 7.12154 28.7304 7.11314 28.7304 7.10769C28.7246 7.09143 28.7133 7.07797 28.7021 7.06451C28.6911 7.07284 28.6829 7.0784 28.672 7.08945Z" fill="#C05251"/>
<path id="Vector_78" d="M27.4024 8.87607C27.4137 8.88953 27.4222 8.90303 27.4335 8.91649C27.4444 8.90816 27.4609 8.89976 27.4608 8.89431C27.4551 8.87805 27.4438 8.86459 27.4325 8.85113C27.4244 8.86214 27.4162 8.86771 27.4024 8.87607Z" fill="#C05251"/>
<path id="Vector_79" d="M103.264 6.91134C103.245 6.91966 103.226 6.92798 103.21 6.93358C103.221 6.94148 103.232 6.95474 103.237 6.95198C103.256 6.94903 103.275 6.93803 103.294 6.93239C103.283 6.92718 103.275 6.91924 103.264 6.91134Z" fill="#C05251"/>
<path id="Vector_80" d="M24.6346 6.86001C24.6536 6.85169 24.6725 6.84337 24.6888 6.83777C24.6778 6.82987 24.6667 6.81661 24.6613 6.81937C24.6422 6.82232 24.6233 6.83332 24.6043 6.83896C24.6125 6.84421 24.6236 6.85211 24.6346 6.86001Z" fill="#C05251"/>
<path id="Vector_81" d="M24.3912 6.87258C24.4021 6.86425 24.4186 6.85585 24.4185 6.8504C24.4128 6.83414 24.4015 6.82068 24.3902 6.80722C24.3793 6.81555 24.36 6.82399 24.3629 6.8294C24.3659 6.8457 24.3799 6.85912 24.3912 6.87258Z" fill="#C05251"/>
<path id="Vector_82" d="M103.006 7.85647C103.017 7.84814 103.037 7.8397 103.034 7.83429C103.028 7.81803 103.017 7.80457 103.005 7.79112C102.995 7.79944 102.978 7.80784 102.978 7.81329C102.981 7.82686 102.995 7.84029 103.006 7.85647Z" fill="#C05251"/>
<path id="Vector_83" d="M22.3558 7.06884C22.3445 7.05538 22.3333 7.04192 22.3248 7.02842C22.3138 7.03674 22.2973 7.04515 22.2974 7.05059C22.3032 7.06685 22.3145 7.08031 22.3257 7.09377C22.3339 7.08549 22.3448 7.07716 22.3558 7.06884Z" fill="#C05251"/>
<path id="Vector_84" d="M19.8094 9.05701C19.7984 9.04911 19.7873 9.03585 19.7819 9.03861C19.7628 9.04156 19.7439 9.05256 19.7249 9.0582C19.7359 9.0661 19.747 9.07936 19.7524 9.0766C19.7715 9.07365 19.7904 9.06265 19.8094 9.05701Z" fill="#C05251"/>
<path id="Vector_85" d="M111.354 7.10598C111.365 7.09765 111.385 7.08921 111.382 7.0838C111.376 7.06754 111.365 7.05408 111.353 7.04062C111.342 7.04895 111.323 7.05739 111.326 7.0628C111.332 7.07906 111.346 7.09248 111.354 7.10598Z" fill="#C05251"/>
<path id="Vector_86" d="M18.086 9.08142C18.075 9.07353 18.0639 9.06026 18.0585 9.06302C18.0394 9.06597 18.0205 9.07698 18.0015 9.08261C18.0125 9.09051 18.0236 9.10378 18.029 9.10102C18.0481 9.09806 18.067 9.08706 18.086 9.08142Z" fill="#C05251"/>
<path id="Vector_87" d="M17.724 6.9249C17.7352 6.93836 17.7465 6.95182 17.755 6.96532C17.7632 6.95703 17.7824 6.94859 17.7824 6.94314C17.7766 6.92688 17.7653 6.91342 17.7541 6.89996C17.7431 6.90829 17.7349 6.91657 17.724 6.9249Z" fill="#C05251"/>
<path id="Vector_88" d="M16.8497 6.88367C16.8387 6.87577 16.8276 6.86251 16.8222 6.86527C16.8031 6.86822 16.7842 6.87922 16.7652 6.88486C16.7762 6.89276 16.7873 6.90602 16.7927 6.90326C16.8118 6.90031 16.8307 6.89199 16.8497 6.88367Z" fill="#C05251"/>
<path id="Vector_89" d="M16.3937 7.29096C16.4045 7.28275 16.4153 7.27455 16.4234 7.26906C16.4042 7.26128 16.385 7.2535 16.3659 7.25108C16.3577 7.2512 16.347 7.26477 16.3389 7.27025C16.3554 7.27807 16.3746 7.28586 16.3937 7.29096Z" fill="#C05251"/>
<path id="Vector_90" d="M101.77 8.02011C101.781 8.03357 101.792 8.04703 101.801 8.06053C101.812 8.05221 101.831 8.04376 101.828 8.03836C101.822 8.0221 101.811 8.00864 101.8 7.99518C101.792 8.00619 101.781 8.01179 101.77 8.02011Z" fill="#C05251"/>
<path id="Vector_91" d="M14.0968 7.23767C14.0858 7.22978 14.0747 7.21651 14.0692 7.21927C14.0502 7.22222 14.0312 7.23323 14.0122 7.23886C14.0233 7.24676 14.0344 7.26003 14.0398 7.25727C14.0589 7.257 14.0778 7.24599 14.0968 7.23767Z" fill="#C05251"/>
<path id="Vector_92" d="M9.6933 8.96625C9.70409 8.95804 9.71489 8.94984 9.723 8.94436C9.70379 8.93657 9.68459 8.92879 9.66546 8.92637C9.65727 8.92649 9.64655 8.94006 9.63845 8.94555C9.65765 8.95333 9.67686 8.96111 9.6933 8.96625Z" fill="#C05251"/>
<path id="Vector_93" d="M99.9642 7.00356C99.9831 6.99524 100.002 6.98692 100.018 6.98133C100.007 6.97343 99.9963 6.96016 99.9909 6.96292C99.9718 6.96588 99.9529 6.97688 99.9339 6.98252C99.9421 6.98777 99.9531 6.99567 99.9642 7.00356Z" fill="#C05251"/>
</g>
<path id="Vector_94" d="M134.406 6.97346C134.373 6.98462 134.341 7.0038 134.325 7.02543C134.314 7.03629 134.325 7.07091 134.342 7.07871C134.408 7.1099 134.479 7.14635 134.552 7.15602C134.672 7.17307 134.821 7.14422 134.914 7.1884C135.046 7.24809 135.108 7.19638 135.15 7.13959C135.182 7.09633 135.184 6.99731 135.148 6.97908C135.071 6.94002 134.957 6.92023 134.862 6.92424C134.81 6.92764 134.765 7.02192 134.711 7.02269C134.643 7.02632 134.572 6.97916 134.547 6.9688C134.463 6.96998 134.43 6.96509 134.406 6.97346Z" fill="#C05251"/>
<path id="Vector_95" d="M140.17 7.03959C140.118 7.03229 140.066 7.02499 140.012 7.0204C139.971 7.0183 139.927 7.01623 139.887 7.02216C139.873 7.02502 139.86 7.04662 139.855 7.06275C139.852 7.06813 139.871 7.08124 139.882 7.08377C139.923 7.08587 139.966 7.08258 140.051 7.0814C140.067 7.07582 140.118 7.05636 140.17 7.03959Z" fill="#C05251"/>
<path id="Vector_96" d="M147.156 6.9146C147.186 6.91418 147.213 6.89237 147.24 6.87859C147.201 6.85234 147.163 6.82341 147.124 6.79715C147.105 6.81617 147.084 6.83523 147.041 6.87871C147.096 6.89669 147.129 6.91767 147.156 6.9146Z" fill="#C05251"/>
<path id="Vector_97" d="M89.6079 8.16895C89.6961 8.25333 89.7804 8.25215 89.8662 8.16532C89.7792 8.16654 89.6949 8.16772 89.6079 8.16895Z" fill="#C05251"/>
<path id="Vector_98" d="M140.529 7.07442C140.518 7.09347 140.51 7.10977 140.502 7.12877C140.492 7.15051 140.484 7.17221 140.476 7.19391C140.503 7.19623 140.55 7.20636 140.553 7.20093C140.58 7.16007 140.595 7.11667 140.617 7.07319C140.587 7.07362 140.559 7.074 140.529 7.07442Z" fill="#C05251"/>
<path id="Vector_99" d="M140.528 7.00978C140.457 7.01078 140.386 7.01177 140.316 7.01276C140.305 7.01292 140.286 7.02924 140.286 7.03191C140.292 7.04789 140.303 7.07181 140.317 7.07162C140.387 7.0733 140.458 7.07231 140.529 7.07131C140.528 7.05259 140.528 7.03119 140.528 7.00978Z" fill="#C05251"/>
<path id="Vector_100" d="M40.1968 6.7105C40.224 6.71012 40.2537 6.68827 40.2807 6.67449C40.2422 6.64824 40.2037 6.61931 40.1652 6.59305C40.1464 6.61207 40.1249 6.63113 40.0819 6.6746C40.1339 6.68995 40.1641 6.71096 40.1968 6.7105Z" fill="#C05251"/>
<path id="Vector_101" d="M21.3303 6.6955C21.3109 6.685 21.2887 6.66376 21.2696 6.66403C21.234 6.66722 21.1986 6.68119 21.1632 6.68977C21.1907 6.70285 21.2156 6.71866 21.2515 6.73971C21.2814 6.72313 21.3058 6.70931 21.3303 6.6955Z" fill="#C05251"/>
<path id="Vector_102" d="M20.4086 6.66657C20.4275 6.64738 20.4548 6.63077 20.4627 6.60902C20.468 6.59543 20.4458 6.57411 20.4345 6.55804C20.4045 6.56928 20.3744 6.57781 20.3607 6.58342C20.3889 6.6317 20.3974 6.65051 20.4086 6.66657Z" fill="#C05251"/>
<path id="Vector_103" d="M141.904 6.96173C141.904 6.95359 141.868 6.94596 141.849 6.93809C141.838 6.96537 141.825 6.9954 141.822 7.02256C141.823 7.0307 141.859 7.03833 141.889 7.05418C141.897 7.0188 141.908 6.99152 141.904 6.96173Z" fill="#C05251"/>
<path id="Vector_104" d="M140.616 7.01088C140.615 6.98918 140.618 6.96744 140.615 6.94849C140.609 6.92958 140.595 6.9135 140.586 6.89463C140.567 6.91389 140.54 6.93055 140.529 6.94969C140.521 6.96879 140.527 6.99042 140.527 7.01212C140.558 7.01169 140.585 7.0113 140.616 7.01088Z" fill="#C05251"/>
<path id="Vector_105" d="M134.236 7.00494C134.201 6.99466 134.165 6.979 134.126 6.97685C134.107 6.97442 134.083 6.99632 134.061 7.0074C134.094 7.0204 134.13 7.03337 134.16 7.04372C134.193 7.0271 134.215 7.01602 134.236 7.00494Z" fill="#C05251"/>
<path id="Vector_106" d="M94.1785 8.29443C94.2007 8.31567 94.2229 8.33691 94.2451 8.35815C94.2803 8.3361 94.3156 8.31406 94.3536 8.29197C94.2934 8.29282 94.2359 8.29363 94.1785 8.29443Z" fill="#C05251"/>
<path id="Vector_107" d="M149.923 7.2285C149.934 7.2364 149.945 7.24967 149.951 7.24691C149.97 7.24395 149.989 7.23295 150.008 7.22731C149.997 7.21942 149.988 7.21416 149.977 7.20626C149.961 7.21186 149.942 7.22018 149.923 7.2285Z" fill="#C05251"/>
<path id="Vector_108" d="M147.595 7.07128C147.606 7.07917 147.617 7.09244 147.622 7.08968C147.644 7.08669 147.66 7.07572 147.679 7.07009C147.668 7.06219 147.66 7.05694 147.649 7.04904C147.633 7.05464 147.614 7.06296 147.595 7.07128Z" fill="#C05251"/>
<path id="Vector_109" d="M146.818 6.8286C146.829 6.8365 146.84 6.84976 146.845 6.847C146.864 6.84405 146.883 6.83305 146.902 6.82741C146.891 6.81951 146.883 6.81426 146.872 6.80636C146.853 6.812 146.834 6.82032 146.818 6.8286Z" fill="#C05251"/>
<path id="Vector_110" d="M140.959 7.03612C140.978 7.0439 140.998 7.05169 141.017 7.0541C141.025 7.05399 141.036 7.04041 141.044 7.03493C141.025 7.02715 141.005 7.01936 140.989 7.01423C140.978 7.02243 140.967 7.03064 140.959 7.03612Z" fill="#C05251"/>
<path id="Vector_111" d="M140.857 7.04913C140.852 7.03287 140.84 7.01941 140.829 7.00596C140.818 7.01428 140.799 7.02272 140.802 7.02813C140.808 7.04439 140.819 7.05785 140.83 7.07131C140.841 7.06298 140.86 7.05454 140.857 7.04913Z" fill="#C05251"/>
<path id="Vector_112" d="M140.615 7.07421C140.64 7.06575 140.664 7.05999 140.686 7.05156C140.661 7.03838 140.636 7.0225 140.614 7.00928C140.615 7.03092 140.615 7.05257 140.615 7.07421Z" fill="#C05251"/>
<path id="Vector_113" d="M139.234 6.93494C139.223 6.92704 139.212 6.91378 139.207 6.91654C139.188 6.91949 139.169 6.93049 139.15 6.93613C139.161 6.94403 139.169 6.94928 139.18 6.95718C139.197 6.95158 139.215 6.94326 139.234 6.93494Z" fill="#C05251"/>
<path id="Vector_114" d="M139.063 7.06301C139.043 7.05523 139.024 7.04744 139.005 7.04503C138.997 7.04514 138.986 7.05871 138.978 7.0642C138.997 7.07198 139.016 7.07976 139.033 7.0849C139.044 7.0767 139.055 7.07118 139.063 7.06301Z" fill="#C05251"/>
<path id="Vector_115" d="M138.718 7.16503C138.743 7.15657 138.768 7.15081 138.79 7.14238C138.765 7.1292 138.74 7.11332 138.718 7.1001C138.718 7.12174 138.718 7.14339 138.718 7.16503Z" fill="#C05251"/>
<path id="Vector_116" d="M138.718 7.09998C138.71 7.08399 138.704 7.06528 138.69 7.05205C138.685 7.04944 138.655 7.05792 138.639 7.06351C138.653 7.07674 138.666 7.08729 138.68 7.10051C138.694 7.10032 138.705 7.10017 138.718 7.09998Z" fill="#C05251"/>
<path id="Vector_117" d="M138.722 7.19182C138.708 7.18099 138.696 7.17287 138.682 7.16204C138.668 7.17602 138.655 7.18725 138.644 7.20119C138.641 7.20398 138.661 7.21473 138.672 7.22009C138.689 7.21434 138.705 7.20308 138.722 7.19182Z" fill="#C05251"/>
<path id="Vector_118" d="M96.1825 6.74912C96.1716 6.76289 96.1607 6.77666 96.1554 6.79308C96.1527 6.79856 96.1722 6.80646 96.1834 6.81447C96.1943 6.8007 96.2052 6.78693 96.2133 6.7732C96.202 6.76246 96.1909 6.75717 96.1825 6.74912Z" fill="#C05251"/>
<path id="Vector_119" d="M93.295 6.85467C93.3169 6.84895 93.3416 6.8459 93.3607 6.8348C93.3662 6.83202 93.3521 6.81057 93.3464 6.79712C93.3301 6.80817 93.311 6.81656 93.2946 6.82761C93.2947 6.83573 93.2948 6.84385 93.295 6.85467Z" fill="#C05251"/>
<path id="Vector_120" d="M90.4503 6.86131C90.4613 6.86921 90.4724 6.88248 90.4778 6.87972C90.4968 6.87677 90.5158 6.86576 90.5348 6.86013C90.5238 6.85223 90.5155 6.84698 90.5045 6.83908C90.4882 6.84467 90.4692 6.85299 90.4503 6.86131Z" fill="#C05251"/>
<path id="Vector_121" d="M72.5665 6.70176C72.5556 6.71553 72.5448 6.7293 72.5395 6.74571C72.5368 6.7512 72.5562 6.75909 72.5674 6.76711C72.5783 6.75334 72.5892 6.73957 72.5973 6.72584C72.5861 6.7151 72.5749 6.70981 72.5665 6.70176Z" fill="#C05251"/>
<path id="Vector_122" d="M47.0945 6.55291C47.1165 6.54719 47.1412 6.54414 47.1603 6.53304C47.1657 6.53026 47.1517 6.50881 47.146 6.49536C47.1296 6.50641 47.1105 6.5148 47.0942 6.52586C47.0943 6.53397 47.0944 6.54479 47.0945 6.55291Z" fill="#C05251"/>
<path id="Vector_123" d="M42.7386 9.17375C42.7244 9.16292 42.7131 9.15481 42.6989 9.14398C42.6851 9.15796 42.6712 9.16918 42.6602 9.18312C42.6575 9.18592 42.6772 9.19667 42.6886 9.20478C42.7052 9.19352 42.7219 9.18501 42.7386 9.17375Z" fill="#C05251"/>
<path id="Vector_124" d="M104.985 8.07905C104.972 8.08998 104.961 8.09819 104.947 8.10911C104.964 8.11962 104.98 8.13012 105 8.13791C105.002 8.13787 105.016 8.12426 105.027 8.11874C105.013 8.10551 104.999 8.09228 104.985 8.07905Z" fill="#C05251"/>
<path id="Vector_125" d="M36.5362 9.38615C36.522 9.37532 36.5107 9.36721 36.4965 9.35638C36.4827 9.37036 36.4689 9.38158 36.4578 9.39552C36.4551 9.39832 36.4748 9.40907 36.4861 9.41443C36.5029 9.40868 36.5195 9.39741 36.5362 9.38615Z" fill="#C05251"/>
<path id="Vector_126" d="M133.935 7.10399C133.946 7.09022 133.957 7.07645 133.962 7.06003C133.965 7.05454 133.945 7.04665 133.934 7.03863C133.923 7.05241 133.912 7.06618 133.904 7.07991C133.916 7.09064 133.927 7.09866 133.935 7.10399Z" fill="#C05251"/>
<path id="Vector_127" d="M31.274 9.08533C31.263 9.07743 31.2519 9.06417 31.2465 9.06693C31.2274 9.06988 31.2085 9.08088 31.1895 9.08652C31.2005 9.09442 31.2088 9.09967 31.2198 9.10757C31.236 9.09929 31.255 9.09097 31.274 9.08533Z" fill="#C05251"/>
<path id="Vector_128" d="M103.012 8.23582C103.022 8.22205 103.033 8.20828 103.039 8.19187C103.041 8.18638 103.022 8.17848 103.011 8.17047C103 8.18424 102.989 8.19801 102.981 8.21174C102.992 8.21976 103 8.22781 103.012 8.23582Z" fill="#C05251"/>
<path id="Vector_129" d="M115.594 8.18504C115.604 8.17127 115.615 8.1575 115.621 8.14108C115.623 8.1356 115.604 8.1277 115.593 8.11969C115.582 8.13346 115.571 8.14723 115.563 8.16096C115.574 8.1717 115.582 8.17703 115.594 8.18504Z" fill="#C05251"/>
<path id="Vector_130" d="M21.5441 6.72264C21.5549 6.70887 21.5658 6.6951 21.5711 6.67868C21.5738 6.6732 21.5543 6.6653 21.5431 6.65729C21.5323 6.67106 21.5214 6.68483 21.5133 6.69856C21.5245 6.7093 21.5329 6.71735 21.5441 6.72264Z" fill="#C05251"/>
<path id="Vector_131" d="M14.4407 7.20428C14.4627 7.19856 14.4874 7.19551 14.5065 7.18441C14.5119 7.18163 14.4979 7.16018 14.4922 7.14673C14.4758 7.15778 14.4567 7.16617 14.4404 7.17722C14.4404 7.18263 14.4406 7.19346 14.4407 7.20428Z" fill="#C05251"/>
<path id="Vector_132" d="M3.66654 8.28253C3.66078 8.26627 3.64952 8.25281 3.63826 8.23935C3.63007 8.24764 3.60805 8.25612 3.6109 8.26153C3.61666 8.27779 3.62792 8.29125 3.63918 8.30471C3.65013 8.29638 3.66939 8.28794 3.66654 8.28253Z" fill="#C05251"/>
<path id="Vector_133" d="M3.63927 8.36484C3.63116 8.37857 3.61751 8.39238 3.61221 8.4088C3.60952 8.41428 3.629 8.42218 3.64019 8.43019C3.65106 8.41642 3.66194 8.40265 3.67005 8.38892C3.65887 8.38091 3.65045 8.37286 3.63927 8.36484Z" fill="#C05251"/>
<path id="Vector_134" d="M138.002 7.12078C137.983 7.12373 137.964 7.13473 137.945 7.14037C137.956 7.14827 137.967 7.16153 137.972 7.15877C137.991 7.15582 138.01 7.14482 138.029 7.13918C138.021 7.13393 138.007 7.1207 138.002 7.12078Z" fill="#C05251"/>
<path id="Vector_135" d="M133.076 7.18016C133.087 7.16639 133.098 7.15262 133.103 7.1362C133.106 7.13072 133.086 7.12282 133.075 7.11481C133.064 7.12858 133.053 7.14235 133.045 7.15608C133.056 7.16682 133.065 7.17215 133.076 7.18016Z" fill="#C05251"/>
</g>
</g>
</svg>
